<svg id="Layer_1" data-name="Layer 1" xmlns="http://www.w3.org/2000/svg" viewBox="0 0 1920 216"><defs><style>.cls-1{fill:#8c8e90;}.cls-2{fill:#ffda00;}.cls-3{fill:#231f20;}</style></defs><rect class="cls-1" x="-1.55" y="-589.05" width="1925.06" height="1263.06"/><rect class="cls-2" x="470.31" y="-592.92" width="48.77" height="1266.65"/><path class="cls-3" d="M173,674V505.67H-163.73L-266,674H-623.13L176.1-490.21H470.3V674Zm0-726.85H169.8L-22.14,269.68H173Z"/><path class="cls-3" d="M519.09,674V-490.21H816.43V269.68h3.15l494-759.89h357.14L871.49,674Z"/><path class="cls-3" d="M1724.16,674V505.67H1387.47L1285.21,674H928.07L1727.3-490.21h294.2V674Zm0-726.85H1721L1529.06,269.68h195.1Z"/><polygon class="cls-2" points="871.49 674.01 928.07 674.01 1923.51 -776.02 1923.51 -858.44 871.49 674.01"/></svg>