<svg id="Layer_1" data-name="Layer 1" xmlns="http://www.w3.org/2000/svg" viewBox="0 0 1920 216"><defs><style>.cls-1{fill:#fff;}.cls-2{fill:#d2232a;}</style></defs><rect class="cls-1" width="1920" height="215.99"/><rect y="105.75" width="1920" height="4.5"/><rect y="80.74" width="1920" height="4.5"/><rect y="55.74" width="1920" height="4.5"/><rect y="155.76" width="1920" height="4.5"/><rect y="130.75" width="1920" height="4.5"/><rect x="139.38" width="4.5" height="216"/><rect x="114.36" width="4.5" height="216"/><rect x="89.36" width="4.5" height="216"/><rect x="189.39" width="4.5" height="216"/><rect x="164.38" width="4.5" height="216"/><rect class="cls-2" x="93.86" y="60.24" width="20.5" height="20.5"/><rect class="cls-2" x="1082.75" y="110.25" width="20.5" height="20.5"/><rect class="cls-2" x="892.75" y="85.24" width="20.5" height="20.5"/><rect class="cls-2" x="1661.75" y="135.26" width="20.5" height="20.5"/><rect class="cls-2" x="1460.75" y="60.23" width="20.5" height="20.5"/><rect class="cls-2" x="352.59" y="135.26" width="20.5" height="20.5"/><rect class="cls-2" x="519.86" y="60.24" width="20.5" height="20.5"/><rect class="cls-2" x="143.88" y="185.26" width="20.5" height="20.5"/></svg>