<?xml version="1.0" encoding="utf-8"?>
<!-- Generator: Adobe Illustrator 25.4.1, SVG Export Plug-In . SVG Version: 6.00 Build 0)  -->
<svg version="1.1" xmlns="http://www.w3.org/2000/svg" xmlns:xlink="http://www.w3.org/1999/xlink" x="0px" y="0px"
	 viewBox="0 0 1920 216" style="enable-background:new 0 0 1920 216;" xml:space="preserve">
<style type="text/css">
	.st0{fill:#FFFFFF;}
	.st1{fill:none;stroke:#4D4D4D;stroke-width:2.3992;stroke-miterlimit:10;}
</style>
<g id="Layer_1">
	<rect x="1.32" class="st0" width="1918.68" height="217.71"/>
	<g>
		<path d="M112.97,267.38V118.01h24.57v61.91h79.6v-61.91h24.57v149.38h-24.57v-67.22h-79.6v67.22H112.97z"/>
		<path d="M316.99,270.53c-9.04,0-17.07-2.26-24.08-6.78c-7.01-4.52-12.51-10.74-16.51-18.67c-4-7.93-5.99-17-5.99-27.22
			c0-9.96,2.13-18.9,6.39-26.83c4.26-7.93,10.05-14.25,17.39-18.97c7.34-4.72,15.46-7.08,24.37-7.08c7.2,0,13.76,1.71,19.65,5.11
			c5.9,3.41,10.61,8.19,14.15,14.35l0.39-16.31h21.82v99.26h-21.82l-0.39-16.31C344.9,264.04,333.11,270.53,316.99,270.53z
			 M323.28,250.28c8.91,0,16.15-3.05,21.72-9.14c5.57-6.09,8.35-13.92,8.35-23.49c0-9.56-2.79-17.36-8.35-23.39
			c-5.57-6.03-12.81-9.04-21.72-9.04c-8.78,0-15.95,3.02-21.52,9.04c-5.57,6.03-8.35,13.83-8.35,23.39c0,9.57,2.78,17.39,8.35,23.49
			C307.32,247.24,314.5,250.28,323.28,250.28z"/>
		<path d="M406.42,267.38v-99.26h21.62l0.39,15.33c2.62-5.9,6.68-10.45,12.19-13.66c5.5-3.21,11.79-4.82,18.87-4.82
			c15.33,0,25.75,6.75,31.25,20.24c2.75-6.16,7.08-11.07,12.97-14.74c5.9-3.67,12.64-5.5,20.24-5.5c11.66,0,20.6,3.64,26.83,10.91
			c6.22,7.27,9.34,17.72,9.34,31.35v60.14h-22.6v-56.02c0-17.56-6.75-26.34-20.24-26.34c-7.21,0-12.81,2.49-16.8,7.47
			c-4,4.98-6,11.92-6,20.83v54.05h-22.6v-56.02c0-17.56-6.68-26.34-20.05-26.34c-7.21,0-12.81,2.46-16.8,7.37
			c-4,4.91-5.99,11.83-5.99,20.74v54.25H406.42z"/>
		<path d="M646.99,270.53c-7.34,0-13.92-1.67-19.75-5.01c-5.83-3.34-10.45-8.09-13.86-14.25l-0.59,16.12h-21.62v-159.2h22.6v75.67
			c7.6-12.58,19.26-18.87,34.99-18.87c9.04,0,17.03,2.26,23.98,6.78c6.94,4.52,12.41,10.71,16.41,18.57
			c4,7.86,5.99,16.97,5.99,27.32c0,9.83-2.13,18.74-6.39,26.73c-4.26,7.99-10.02,14.35-17.3,19.07
			C664.19,268.17,656.03,270.53,646.99,270.53z M642.27,250.28c8.91,0,16.15-3.05,21.72-9.14c5.57-6.09,8.35-13.92,8.35-23.49
			c0-9.56-2.79-17.36-8.35-23.39c-5.57-6.03-12.81-9.04-21.72-9.04c-8.78,0-15.95,3.02-21.52,9.04c-5.57,6.03-8.35,13.83-8.35,23.39
			c0,9.57,2.78,17.39,8.35,23.49C626.32,247.24,633.49,250.28,642.27,250.28z"/>
		<path d="M754.69,270.53c-11.14,0-19.69-3.44-25.65-10.32c-5.96-6.88-8.94-16.8-8.94-29.78v-62.31h22.8v56.8
			c0,9.04,1.6,15.56,4.82,19.56c3.21,4,8.42,5.99,15.63,5.99c7.34,0,13.07-2.52,17.2-7.57c4.13-5.04,6.19-11.96,6.19-20.74v-54.05
			h22.6v99.26h-21.62l-0.39-15.72c-2.62,6.03-6.78,10.68-12.48,13.96C769.14,268.89,762.42,270.53,754.69,270.53z"/>
		<path d="M841.18,267.38v-99.26h21.62l0.2,19.85c2.62-6.81,6.42-12.09,11.4-15.82c4.98-3.73,10.68-5.6,17.1-5.6
			c2.09,0,4.23,0.2,6.39,0.59c2.16,0.39,3.9,0.92,5.21,1.57l-2.16,21.23c-3.8-1.57-7.86-2.36-12.19-2.36
			c-7.86,0-13.99,2.88-18.38,8.65c-4.39,5.77-6.58,13.89-6.58,24.37v46.78H841.18z"/>
		<path d="M964.61,317.31c-7.21,0-14.38-0.82-21.52-2.46c-7.14-1.64-12.55-3.7-16.21-6.19l2.56-19.46c4.45,2.62,9.7,4.72,15.72,6.29
			c6.03,1.57,11.99,2.36,17.89,2.36c11.66,0,20.31-2.92,25.94-8.75c5.63-5.83,8.45-14.71,8.45-26.63v-11.79
			c-3.67,6.16-8.52,10.91-14.54,14.25c-6.03,3.34-12.97,5.01-20.83,5.01c-9.04,0-17.07-2.23-24.08-6.68
			c-7.01-4.45-12.51-10.64-16.51-18.57c-4-7.93-5.99-16.93-5.99-27.03c0-9.83,2.13-18.74,6.39-26.73
			c4.26-7.99,10.05-14.31,17.39-18.97c7.34-4.65,15.53-6.98,24.57-6.98c7.08,0,13.56,1.71,19.46,5.11
			c5.9,3.41,10.61,8.19,14.15,14.35l0.39-16.31h21.82v92.77c0,18.6-4.62,32.66-13.86,42.16
			C996.54,312.55,982.82,317.31,964.61,317.31z M968.34,250.09c8.91,0,16.15-3.05,21.72-9.14c5.57-6.09,8.35-13.92,8.35-23.49
			c0-6.42-1.28-12.05-3.83-16.9c-2.55-4.85-6.09-8.68-10.61-11.5c-4.52-2.82-9.73-4.23-15.62-4.23c-8.78,0-15.95,3.05-21.52,9.14
			c-5.57,6.09-8.35,13.92-8.35,23.49c0,9.57,2.78,17.39,8.35,23.49C952.39,247.04,959.56,250.09,968.34,250.09z"/>
		<path d="M1101.79,270.53c-11.66,0-21.72-2.13-30.17-6.39c-8.45-4.26-14.97-10.32-19.56-18.18c-4.59-7.86-6.88-17.16-6.88-27.91
			c0-10.48,2.13-19.69,6.39-27.62c4.26-7.93,10.19-14.15,17.79-18.67c7.6-4.52,16.25-6.78,25.94-6.78c9.3,0,17.42,2.03,24.37,6.09
			c6.94,4.06,12.32,9.76,16.12,17.1c3.8,7.34,5.7,15.99,5.7,25.94c0,3.15-0.2,6.42-0.59,9.83h-73.31
			c1.18,9.3,4.88,16.31,11.11,21.03c6.22,4.72,14.58,7.08,25.06,7.08c11.66,0,22.8-2.56,33.41-7.67l2.36,17.69
			c-4.72,2.62-10.45,4.69-17.2,6.19C1115.58,269.77,1108.74,270.53,1101.79,270.53z M1094.52,182.47c-7.34,0-13.4,2.29-18.18,6.88
			c-4.78,4.59-7.76,11.07-8.94,19.46h52.67c0-1.44-0.13-2.75-0.39-3.93c-1.05-7.21-3.73-12.74-8.06-16.61
			C1107.3,184.41,1101.6,182.47,1094.52,182.47z"/>
		<path d="M1177.26,267.38V187h-19.07v-18.87h19.07v-13.95c0-15.2,3.5-26.83,10.51-34.89c7.01-8.06,17.13-12.09,30.37-12.09
			c4.06,0,8.02,0.39,11.89,1.18c3.86,0.79,7.17,1.84,9.93,3.14L1237.8,130c-2.49-0.92-5.18-1.64-8.06-2.16
			c-2.88-0.52-5.64-0.79-8.26-0.79c-7.6,0-13.1,2.29-16.51,6.88c-3.41,4.59-5.11,12.12-5.11,22.6v11.6h28.7V187h-28.7v80.39H1177.26
			z"/>
		<path d="M1294.6,270.53c-10.09,0-19.13-2.29-27.12-6.88c-7.99-4.58-14.28-10.87-18.87-18.87c-4.59-7.99-6.88-17.03-6.88-27.12
			c0-9.96,2.36-18.9,7.08-26.83c4.72-7.93,11.07-14.22,19.06-18.87c7.99-4.65,16.9-6.98,26.73-6.98c10.09,0,19.13,2.29,27.12,6.88
			c7.99,4.59,14.28,10.84,18.87,18.77c4.58,7.93,6.88,16.94,6.88,27.03c0,9.96-2.36,18.94-7.08,26.93
			c-4.72,7.99-11.04,14.32-18.97,18.97C1313.5,268.2,1304.56,270.53,1294.6,270.53z M1294.6,250.28c8.91,0,16.15-3.05,21.72-9.14
			c5.57-6.09,8.35-13.92,8.35-23.49c0-9.56-2.79-17.36-8.35-23.39c-5.57-6.03-12.81-9.04-21.72-9.04c-8.78,0-15.95,3.02-21.52,9.04
			c-5.57,6.03-8.35,13.83-8.35,23.39c0,9.57,2.78,17.39,8.35,23.49C1278.65,247.24,1285.82,250.28,1294.6,250.28z"/>
		<path d="M1373.02,267.38v-99.26h21.82l0.2,15.33c2.88-5.76,7.08-10.29,12.58-13.56c5.5-3.27,11.86-4.91,19.07-4.91
			c11.66,0,20.57,3.64,26.73,10.91c6.16,7.27,9.24,17.72,9.24,31.35v60.14h-22.6v-56.02c0-17.56-6.81-26.34-20.44-26.34
			c-7.47,0-13.33,2.49-17.59,7.47c-4.26,4.98-6.39,11.92-6.39,20.83v54.05H1373.02z"/>
		<path d="M1521.61,270.53c-6.68,0-13.3-0.85-19.85-2.55c-6.55-1.7-11.73-4-15.53-6.88l2.95-18.08c4.45,3.15,9.56,5.6,15.33,7.37
			c5.76,1.77,11.27,2.65,16.51,2.65c6.42,0,11.37-1.05,14.84-3.14c3.47-2.09,5.21-5.04,5.21-8.84c0-2.49-0.56-4.55-1.67-6.19
			c-1.11-1.64-3.21-3.14-6.29-4.52c-3.08-1.38-7.5-2.85-13.27-4.42c-11.53-3.41-19.72-7.47-24.57-12.19
			c-4.85-4.72-7.27-10.94-7.27-18.67c0-9.3,3.47-16.64,10.42-22.01c6.94-5.37,16.44-8.06,28.5-8.06c5.76,0,11.63,0.76,17.59,2.26
			c5.96,1.51,10.78,3.38,14.45,5.6l-3.14,17.49c-9.04-5.24-18.48-7.86-28.3-7.86c-11.79,0-17.69,3.67-17.69,11.01
			c0,3.41,1.34,6.13,4.03,8.16c2.68,2.03,7.83,4.16,15.43,6.39c12.58,3.67,21.46,7.93,26.63,12.78c5.17,4.85,7.76,11.34,7.76,19.46
			c0,9.3-3.8,16.68-11.4,22.11C1544.67,267.81,1534.45,270.53,1521.61,270.53z"/>
		<path d="M1630.49,270.53c-11.53,0-20.12-3.11-25.75-9.34c-5.63-6.22-8.45-15.75-8.45-28.6V187h-20.83v-18.87h20.83v-27.71h22.6
			v27.71h32.63V187h-32.63v42.06c0,7.6,1.31,13.1,3.93,16.51c2.62,3.41,6.94,5.11,12.97,5.11c6.03,0,12.19-1.57,18.48-4.72
			l2.56,18.87c-3.28,1.84-7.21,3.24-11.79,4.23C1640.45,270.04,1635.6,270.53,1630.49,270.53z"/>
		<path d="M1689.06,145.13c-4.06,0-7.44-1.34-10.12-4.03c-2.69-2.68-4.03-6.06-4.03-10.12c0-4.06,1.34-7.4,4.03-10.02
			c2.68-2.62,6.06-3.93,10.12-3.93c4.19,0,7.6,1.31,10.22,3.93c2.62,2.62,3.93,5.96,3.93,10.02c0,4.06-1.31,7.44-3.93,10.12
			C1696.66,143.79,1693.25,145.13,1689.06,145.13z M1677.86,267.38v-99.26h22.6v99.26H1677.86z"/>
		<path d="M1759.42,267.38l-39.51-99.26h24.76l26.73,76.85l27.12-76.85h23.19l-39.31,99.26H1759.42z"/>
	</g>
	<text transform="matrix(1 0 0 1 1536.5488 681.1727)" style="font-family:'ObjektivMk2-Medium'; font-size:28.7899px;">Objektiv Mk2 - Medium</text>
</g>
<g id="Layer_2">
	<line class="st1" x1="1099.26" y1="191.58" x2="1268.28" y2="-18.07"/>
	<line class="st1" x1="1294.7" y1="211.75" x2="1268.28" y2="-18.07"/>
	<line class="st1" x1="0" y1="118.12" x2="1919.87" y2="118.12"/>
	<line class="st1" x1="1.32" y1="108.16" x2="1918.55" y2="108.16"/>
	<line class="st1" x1="0" y1="168.04" x2="1919.87" y2="168.04"/>
	<line class="st1" x1="-0.13" y1="267.37" x2="1920" y2="267.37"/>
	<line class="st1" x1="0.17" y1="317.3" x2="1919.69" y2="317.3"/>
	<line class="st1" x1="1642.01" y1="441.6" x2="1558.55" y2="441.6"/>
	<line class="st1" x1="598.17" y1="267.29" x2="667.71" y2="378.17"/>
	<line class="st1" x1="667.71" y1="378.17" x2="728.53" y2="378.17"/>
	<line class="st1" x1="700.73" y1="108.16" x2="810.3" y2="44.9"/>
	<line class="st1" x1="810.3" y1="44.9" x2="893.58" y2="44.9"/>
	<line class="st1" x1="272.16" y1="118.12" x2="344.23" y2="44.79"/>
	<line class="st1" x1="344.23" y1="44.79" x2="405.05" y2="44.79"/>
	<line class="st1" x1="87.79" y1="317.3" x2="197.19" y2="378.17"/>
	<line class="st1" x1="197.19" y1="378.17" x2="280.48" y2="378.17"/>
	<line class="st1" x1="1344.72" y1="167.08" x2="1413.87" y2="44.9"/>
	<line class="st1" x1="1413.87" y1="44.9" x2="1474.68" y2="44.9"/>
	<line class="st1" x1="664.52" y1="441.6" x2="725.33" y2="441.6"/>
	<line class="st1" x1="664.52" y1="441.6" x2="378.89" y2="280.43"/>
	<circle class="st1" cx="374.19" cy="267.38" r="13.89"/>
	<circle class="st1" cx="1489.52" cy="252.39" r="18.74"/>
	<circle class="st1" cx="1136.3" cy="252.39" r="18.74"/>
	<line class="st1" x1="1558.55" y1="441.6" x2="1136.3" y2="271.13"/>
	<line class="st1" x1="1558.55" y1="441.6" x2="1474.68" y2="263.82"/>
	<line class="st1" x1="1268.28" y1="-18.07" x2="1350.45" y2="-18.07"/>
	<circle class="st1" cx="963.43" cy="304.82" r="18.74"/>
	<line class="st1" x1="1161.12" y1="441.6" x2="1108.33" y2="441.6"/>
	<line class="st1" x1="972.76" y1="321.06" x2="1108.33" y2="441.6"/>
	<circle class="st1" cx="1095.54" cy="196.2" r="5.95"/>
	<circle class="st1" cx="1294.7" cy="217.71" r="5.95"/>
	<circle class="st1" cx="602.65" cy="118.12" r="18.74"/>
	<line class="st1" x1="608.87" y1="100.45" x2="699.15" y2="-18.07"/>
	<line class="st1" x1="778.85" y1="-18.07" x2="699.15" y2="-18.07"/>
</g>
<g id="Layer_3">
	<g>
		<path d="M1372.09-9.28c-2.28,0-4.29-0.47-6.03-1.41c-1.74-0.94-3.09-2.25-4.06-3.92c-0.97-1.67-1.45-3.6-1.45-5.79
			c0-1.67,0.29-3.2,0.86-4.59c0.58-1.39,1.39-2.6,2.43-3.61c1.05-1.02,2.29-1.8,3.74-2.36c1.45-0.56,3.04-0.83,4.76-0.83
			c1.17,0,2.37,0.16,3.6,0.47c1.23,0.32,2.28,0.75,3.17,1.31l-0.6,3.11c-1.15-0.58-2.23-1-3.22-1.27c-1-0.27-2.01-0.4-3.02-0.4
			c-1.59,0-2.99,0.34-4.19,1.01s-2.13,1.61-2.79,2.82c-0.66,1.21-0.99,2.62-0.99,4.23c0,1.63,0.33,3.05,0.99,4.25
			c0.66,1.2,1.6,2.13,2.81,2.78c1.21,0.65,2.63,0.98,4.26,0.98c1.02,0,2.1-0.15,3.25-0.45c1.15-0.3,2.26-0.71,3.31-1.22l0.37,3.17
			c-1.06,0.56-2.2,0.98-3.44,1.28S1373.36-9.28,1372.09-9.28z"/>
		<path d="M1390.2-9.13c-1.48,0-2.8-0.34-3.97-1.01c-1.17-0.67-2.09-1.59-2.76-2.76c-0.67-1.17-1.01-2.49-1.01-3.97
			c0-1.46,0.34-2.77,1.04-3.93c0.69-1.16,1.62-2.08,2.79-2.76c1.17-0.68,2.48-1.02,3.92-1.02c1.48,0,2.8,0.34,3.97,1.01
			s2.09,1.59,2.76,2.75c0.67,1.16,1.01,2.48,1.01,3.96c0,1.46-0.35,2.77-1.04,3.94c-0.69,1.17-1.62,2.1-2.78,2.78
			S1391.66-9.13,1390.2-9.13z M1390.2-12.1c1.3,0,2.37-0.45,3.18-1.34c0.82-0.89,1.22-2.04,1.22-3.44s-0.41-2.54-1.22-3.43
			c-0.82-0.88-1.88-1.32-3.18-1.32c-1.29,0-2.34,0.44-3.15,1.32c-0.82,0.88-1.22,2.03-1.22,3.43s0.41,2.55,1.22,3.44
			C1387.86-12.55,1388.91-12.1,1390.2-12.1z"/>
		<path d="M1406.64-9.13c-1.63,0-2.88-0.5-3.76-1.51s-1.31-2.46-1.31-4.36v-9.13h3.34v8.32c0,1.32,0.23,2.28,0.71,2.86
			c0.47,0.59,1.23,0.88,2.29,0.88c1.07,0,1.91-0.37,2.52-1.11c0.6-0.74,0.91-1.75,0.91-3.04v-7.92h3.31V-9.6h-3.17l-0.06-2.3
			c-0.38,0.88-0.99,1.56-1.83,2.04S1407.77-9.13,1406.64-9.13z"/>
		<path d="M1419.3-9.6v-14.54h3.2l0.03,2.25c0.42-0.84,1.04-1.51,1.84-1.99c0.81-0.48,1.74-0.72,2.79-0.72
			c1.71,0,3.01,0.53,3.92,1.6c0.9,1.07,1.35,2.6,1.35,4.59v8.81h-3.31v-8.21c0-2.57-1-3.86-2.99-3.86c-1.09,0-1.95,0.36-2.58,1.09
			s-0.94,1.75-0.94,3.05v7.92H1419.3z"/>
		<path d="M1443.05-9.13c-1.69,0-2.95-0.46-3.77-1.37c-0.83-0.91-1.24-2.31-1.24-4.19v-6.68h-3.05v-2.76h3.05v-4.06h3.31v4.06h4.78
			v2.76h-4.78v6.16c0,1.11,0.19,1.92,0.58,2.42c0.38,0.5,1.02,0.75,1.9,0.75s1.79-0.23,2.71-0.69l0.37,2.76
			c-0.48,0.27-1.06,0.48-1.73,0.62C1444.51-9.21,1443.8-9.13,1443.05-9.13z"/>
		<path d="M1457.19-9.13c-1.71,0-3.18-0.31-4.42-0.94c-1.24-0.62-2.19-1.51-2.87-2.66c-0.67-1.15-1.01-2.51-1.01-4.09
			c0-1.54,0.31-2.88,0.94-4.04c0.62-1.16,1.49-2.07,2.61-2.74c1.11-0.66,2.38-0.99,3.8-0.99c1.36,0,2.55,0.3,3.57,0.89
			c1.02,0.6,1.8,1.43,2.36,2.5c0.56,1.08,0.83,2.34,0.83,3.8c0,0.46-0.03,0.94-0.09,1.44h-10.74c0.17,1.36,0.71,2.39,1.63,3.08
			c0.91,0.69,2.13,1.04,3.67,1.04c1.71,0,3.34-0.37,4.89-1.12l0.34,2.59c-0.69,0.38-1.53,0.69-2.52,0.91
			C1459.21-9.25,1458.21-9.13,1457.19-9.13z M1456.12-22.03c-1.08,0-1.96,0.34-2.66,1.01c-0.7,0.67-1.14,1.62-1.31,2.85h7.72
			c0-0.21-0.02-0.4-0.06-0.58c-0.15-1.06-0.55-1.87-1.18-2.43C1458-21.75,1457.16-22.03,1456.12-22.03z"/>
		<path d="M1467.01-9.6v-14.54h3.17l0.03,2.91c0.38-1,0.94-1.77,1.67-2.32s1.56-0.82,2.5-0.82c0.31,0,0.62,0.03,0.94,0.09
			c0.32,0.06,0.57,0.13,0.76,0.23l-0.32,3.11c-0.56-0.23-1.15-0.35-1.79-0.35c-1.15,0-2.05,0.42-2.69,1.27
			c-0.64,0.84-0.96,2.03-0.96,3.57v6.85H1467.01z"/>
		<path d="M1483.36-9.13c-0.98,0-1.95-0.12-2.91-0.37c-0.96-0.25-1.72-0.59-2.27-1.01l0.43-2.65c0.65,0.46,1.4,0.82,2.25,1.08
			c0.84,0.26,1.65,0.39,2.42,0.39c0.94,0,1.67-0.15,2.17-0.46c0.51-0.31,0.76-0.74,0.76-1.3c0-0.36-0.08-0.67-0.24-0.91
			c-0.16-0.24-0.47-0.46-0.92-0.66c-0.45-0.2-1.1-0.42-1.94-0.65c-1.69-0.5-2.89-1.09-3.6-1.79c-0.71-0.69-1.06-1.6-1.06-2.73
			c0-1.36,0.51-2.44,1.53-3.22c1.02-0.79,2.41-1.18,4.17-1.18c0.84,0,1.7,0.11,2.58,0.33c0.87,0.22,1.58,0.49,2.12,0.82l-0.46,2.56
			c-1.32-0.77-2.71-1.15-4.15-1.15c-1.73,0-2.59,0.54-2.59,1.61c0,0.5,0.2,0.9,0.59,1.19c0.39,0.3,1.15,0.61,2.26,0.94
			c1.84,0.54,3.14,1.16,3.9,1.87c0.76,0.71,1.14,1.66,1.14,2.85c0,1.36-0.56,2.44-1.67,3.24C1486.74-9.53,1485.24-9.13,1483.36-9.13
			z"/>
	</g>
	<g>
		<path d="M1167.91,450.07v-21.88h8.21c2.46,0,4.56,0.44,6.32,1.31c1.76,0.87,3.1,2.12,4.04,3.74c0.94,1.62,1.41,3.58,1.41,5.86
			c0,2.32-0.48,4.3-1.44,5.93c-0.96,1.63-2.35,2.88-4.16,3.74c-1.81,0.86-4.02,1.3-6.61,1.3H1167.91z M1175.68,431.15h-4.2v15.95
			h4.17c5.64,0,8.46-2.66,8.46-7.97C1184.12,433.81,1181.3,431.15,1175.68,431.15z"/>
		<path d="M1199,450.53c-1.71,0-3.18-0.31-4.42-0.94c-1.24-0.62-2.19-1.51-2.87-2.66c-0.67-1.15-1.01-2.51-1.01-4.09
			c0-1.54,0.31-2.88,0.94-4.04c0.62-1.16,1.49-2.07,2.61-2.73c1.11-0.66,2.38-0.99,3.8-0.99c1.36,0,2.55,0.3,3.57,0.89
			c1.02,0.6,1.8,1.43,2.36,2.5c0.56,1.08,0.83,2.34,0.83,3.8c0,0.46-0.03,0.94-0.09,1.44h-10.74c0.17,1.36,0.71,2.39,1.63,3.08
			c0.91,0.69,2.13,1.04,3.67,1.04c1.71,0,3.34-0.37,4.89-1.12l0.34,2.59c-0.69,0.38-1.53,0.69-2.52,0.91
			C1201.02,450.42,1200.02,450.53,1199,450.53z M1197.94,437.63c-1.08,0-1.96,0.34-2.66,1.01s-1.14,1.62-1.31,2.85h7.72
			c0-0.21-0.02-0.4-0.06-0.58c-0.15-1.06-0.55-1.87-1.18-2.43C1199.81,437.91,1198.97,437.63,1197.94,437.63z"/>
		<path d="M1216.22,450.44c-1.61,0-3.01-0.31-4.2-0.94c-1.19-0.62-2.12-1.5-2.78-2.63s-0.99-2.47-0.99-4s0.33-2.88,1.01-4.03
			c0.67-1.15,1.6-2.05,2.79-2.71c1.19-0.65,2.57-0.98,4.15-0.98c0.79,0,1.59,0.1,2.4,0.29c0.82,0.19,1.52,0.45,2.12,0.78l-0.43,2.82
			c-0.58-0.29-1.21-0.52-1.92-0.69c-0.7-0.17-1.36-0.26-1.97-0.26c-1.46,0-2.62,0.42-3.48,1.27c-0.86,0.84-1.29,1.99-1.29,3.43
			c0,1.46,0.44,2.61,1.31,3.44s2.08,1.25,3.61,1.25c0.63,0,1.28-0.07,1.93-0.22c0.65-0.14,1.35-0.37,2.1-0.68l0.38,2.73
			c-0.65,0.37-1.39,0.64-2.22,0.83C1217.9,450.35,1217.06,450.44,1216.22,450.44z"/>
		<path d="M1231.91,450.53c-1.71,0-3.18-0.31-4.42-0.94c-1.24-0.62-2.19-1.51-2.87-2.66c-0.67-1.15-1.01-2.51-1.01-4.09
			c0-1.54,0.31-2.88,0.94-4.04c0.62-1.16,1.49-2.07,2.61-2.73c1.11-0.66,2.38-0.99,3.8-0.99c1.36,0,2.55,0.3,3.57,0.89
			c1.02,0.6,1.8,1.43,2.36,2.5c0.56,1.08,0.83,2.34,0.83,3.8c0,0.46-0.03,0.94-0.09,1.44h-10.74c0.17,1.36,0.71,2.39,1.63,3.08
			c0.91,0.69,2.13,1.04,3.67,1.04c1.71,0,3.34-0.37,4.89-1.12l0.34,2.59c-0.69,0.38-1.53,0.69-2.52,0.91
			C1233.93,450.42,1232.92,450.53,1231.91,450.53z M1230.84,437.63c-1.08,0-1.96,0.34-2.66,1.01s-1.14,1.62-1.31,2.85h7.72
			c0-0.21-0.02-0.4-0.06-0.58c-0.15-1.06-0.55-1.87-1.18-2.43C1232.71,437.91,1231.88,437.63,1230.84,437.63z"/>
		<path d="M1241.72,450.07v-14.54h3.2l0.03,2.25c0.42-0.84,1.04-1.51,1.84-1.99c0.81-0.48,1.74-0.72,2.79-0.72
			c1.71,0,3.01,0.53,3.92,1.6c0.9,1.06,1.35,2.6,1.35,4.59v8.81h-3.31v-8.21c0-2.57-1-3.86-2.99-3.86c-1.09,0-1.95,0.36-2.58,1.09
			s-0.94,1.75-0.94,3.05v7.92H1241.72z"/>
		<path d="M1265.33,450.53c-1.33,0-2.5-0.33-3.53-0.99c-1.03-0.66-1.83-1.57-2.42-2.74c-0.59-1.16-0.88-2.49-0.88-3.99
			c0-1.46,0.31-2.77,0.94-3.93c0.62-1.16,1.47-2.09,2.55-2.78c1.07-0.69,2.26-1.04,3.57-1.04c1.04,0,1.98,0.24,2.84,0.72
			c0.85,0.48,1.54,1.15,2.06,2.01v-11.05h3.31v23.32h-3.2l-0.06-2.39C1269.42,449.58,1267.69,450.53,1265.33,450.53z
			 M1266.25,447.56c1.3,0,2.37-0.45,3.18-1.34c0.82-0.89,1.22-2.04,1.22-3.44c0-1.4-0.41-2.54-1.22-3.43
			c-0.82-0.88-1.88-1.32-3.18-1.32c-1.29,0-2.34,0.44-3.15,1.32c-0.82,0.88-1.22,2.03-1.22,3.43c0,1.4,0.41,2.55,1.22,3.44
			C1263.92,447.12,1264.97,447.56,1266.25,447.56z"/>
		<path d="M1285.8,450.53c-1.71,0-3.18-0.31-4.42-0.94c-1.24-0.62-2.19-1.51-2.87-2.66c-0.67-1.15-1.01-2.51-1.01-4.09
			c0-1.54,0.31-2.88,0.94-4.04c0.62-1.16,1.49-2.07,2.61-2.73c1.11-0.66,2.38-0.99,3.8-0.99c1.36,0,2.55,0.3,3.57,0.89
			c1.02,0.6,1.8,1.43,2.36,2.5c0.56,1.08,0.83,2.34,0.83,3.8c0,0.46-0.03,0.94-0.09,1.44h-10.74c0.17,1.36,0.71,2.39,1.63,3.08
			c0.91,0.69,2.13,1.04,3.67,1.04c1.71,0,3.34-0.37,4.89-1.12l0.34,2.59c-0.69,0.38-1.53,0.69-2.52,0.91
			C1287.82,450.42,1286.82,450.53,1285.8,450.53z M1284.74,437.63c-1.08,0-1.96,0.34-2.66,1.01s-1.14,1.62-1.31,2.85h7.72
			c0-0.21-0.02-0.4-0.06-0.58c-0.15-1.06-0.55-1.87-1.18-2.43C1286.61,437.91,1285.77,437.63,1284.74,437.63z"/>
		<path d="M1295.62,450.07v-14.54h3.17l0.03,2.91c0.38-1,0.94-1.77,1.67-2.32c0.73-0.55,1.56-0.82,2.5-0.82
			c0.31,0,0.62,0.03,0.94,0.09s0.57,0.13,0.76,0.23l-0.32,3.11c-0.56-0.23-1.15-0.35-1.79-0.35c-1.15,0-2.05,0.42-2.69,1.27
			c-0.64,0.84-0.96,2.03-0.96,3.57v6.85H1295.62z"/>
	</g>
	<g>
		<path d="M424.2,53.69c-2.28,0-4.29-0.47-6.03-1.41c-1.74-0.94-3.09-2.25-4.06-3.92c-0.97-1.67-1.45-3.6-1.45-5.79
			c0-1.67,0.29-3.2,0.86-4.59s1.39-2.6,2.43-3.61c1.05-1.02,2.29-1.8,3.74-2.36c1.45-0.56,3.04-0.83,4.76-0.83
			c1.17,0,2.37,0.16,3.6,0.47c1.23,0.32,2.28,0.75,3.17,1.31l-0.6,3.11c-1.15-0.58-2.23-1-3.22-1.27c-1-0.27-2.01-0.4-3.02-0.4
			c-1.59,0-2.99,0.34-4.19,1.01s-2.13,1.61-2.79,2.82c-0.66,1.21-0.99,2.62-0.99,4.23c0,1.63,0.33,3.05,0.99,4.25
			c0.66,1.2,1.6,2.13,2.81,2.78c1.21,0.65,2.63,0.98,4.26,0.98c1.02,0,2.1-0.15,3.25-0.45c1.15-0.3,2.25-0.71,3.31-1.22l0.37,3.17
			c-1.06,0.56-2.2,0.98-3.44,1.28S425.47,53.69,424.2,53.69z"/>
		<path d="M441.39,53.83c-1.32,0-2.5-0.33-3.53-0.99s-1.83-1.57-2.42-2.73c-0.59-1.16-0.88-2.49-0.88-3.99
			c0-1.46,0.31-2.77,0.94-3.93c0.62-1.16,1.47-2.09,2.55-2.78s2.26-1.04,3.57-1.04c1.06,0,2.02,0.25,2.88,0.75
			c0.86,0.5,1.55,1.2,2.07,2.1l0.06-2.39h3.2v14.54h-3.2l-0.06-2.39C445.48,52.89,443.75,53.83,441.39,53.83z M442.31,50.87
			c1.3,0,2.37-0.45,3.18-1.34c0.82-0.89,1.22-2.04,1.22-3.44s-0.41-2.54-1.22-3.43c-0.82-0.88-1.88-1.32-3.18-1.32
			c-1.29,0-2.34,0.44-3.15,1.32c-0.82,0.88-1.22,2.03-1.22,3.43s0.41,2.55,1.22,3.44C439.97,50.42,441.02,50.87,442.31,50.87z"/>
		<path d="M454.49,60.43V38.84h3.11l0.06,2.5c0.52-0.96,1.23-1.69,2.14-2.2c0.91-0.51,1.95-0.76,3.12-0.76
			c1.32,0,2.49,0.33,3.51,0.99c1.02,0.66,1.82,1.57,2.4,2.72s0.88,2.49,0.88,4c0,1.44-0.31,2.74-0.94,3.92
			c-0.62,1.17-1.47,2.1-2.53,2.79c-1.07,0.69-2.26,1.04-3.58,1.04c-2.15,0-3.77-0.89-4.87-2.68v9.27H454.49z M461.97,50.87
			c1.31,0,2.37-0.45,3.18-1.34c0.82-0.89,1.22-2.04,1.22-3.44s-0.41-2.54-1.22-3.43c-0.82-0.88-1.88-1.32-3.18-1.32
			c-1.29,0-2.34,0.44-3.15,1.32c-0.82,0.88-1.22,2.03-1.22,3.43s0.41,2.55,1.22,3.44C459.64,50.42,460.69,50.87,461.97,50.87z"/>
		<path d="M480.34,53.37V31.49h3.6v9.07h11.66v-9.07h3.6v21.88h-3.6v-9.85h-11.66v9.85H480.34z"/>
		<path d="M511.69,53.83c-1.71,0-3.18-0.31-4.42-0.94c-1.24-0.62-2.19-1.51-2.86-2.66c-0.67-1.15-1.01-2.51-1.01-4.09
			c0-1.54,0.31-2.88,0.94-4.04s1.49-2.07,2.61-2.74s2.38-0.99,3.8-0.99c1.36,0,2.55,0.3,3.57,0.89c1.02,0.6,1.8,1.43,2.36,2.5
			c0.56,1.08,0.83,2.34,0.83,3.8c0,0.46-0.03,0.94-0.09,1.44h-10.74c0.17,1.36,0.71,2.39,1.63,3.08s2.13,1.04,3.67,1.04
			c1.71,0,3.34-0.37,4.89-1.12l0.35,2.59c-0.69,0.38-1.53,0.69-2.52,0.91C513.71,53.72,512.71,53.83,511.69,53.83z M510.63,40.94
			c-1.07,0-1.96,0.34-2.66,1.01c-0.7,0.67-1.14,1.62-1.31,2.85h7.72c0-0.21-0.02-0.4-0.06-0.58c-0.15-1.06-0.55-1.87-1.18-2.43
			C512.5,41.22,511.66,40.94,510.63,40.94z"/>
		<path d="M523.15,35.47c-0.6,0-1.09-0.2-1.48-0.59c-0.39-0.39-0.59-0.89-0.59-1.48s0.2-1.08,0.59-1.47
			c0.39-0.38,0.89-0.58,1.48-0.58c0.61,0,1.11,0.19,1.5,0.58c0.38,0.38,0.58,0.87,0.58,1.47s-0.19,1.09-0.58,1.48
			C524.26,35.27,523.76,35.47,523.15,35.47z M521.51,53.37V38.84h3.31v14.54H521.51z"/>
		<path d="M535.76,60.69c-1.06,0-2.11-0.12-3.15-0.36c-1.05-0.24-1.84-0.54-2.38-0.91l0.37-2.85c0.65,0.38,1.42,0.69,2.3,0.92
			c0.88,0.23,1.76,0.35,2.62,0.35c1.71,0,2.97-0.43,3.8-1.28c0.82-0.85,1.24-2.15,1.24-3.9v-1.73c-0.54,0.9-1.25,1.6-2.13,2.09
			s-1.9,0.73-3.05,0.73c-1.32,0-2.5-0.33-3.53-0.98s-1.83-1.56-2.42-2.72c-0.59-1.16-0.88-2.48-0.88-3.96
			c0-1.44,0.31-2.74,0.94-3.92c0.62-1.17,1.47-2.1,2.55-2.78c1.07-0.68,2.27-1.02,3.6-1.02c1.04,0,1.99,0.25,2.85,0.75
			c0.86,0.5,1.55,1.2,2.07,2.1l0.06-2.39h3.2v13.59c0,2.73-0.68,4.78-2.03,6.18C540.44,59.99,538.43,60.69,535.76,60.69z
			 M536.31,50.84c1.3,0,2.37-0.45,3.18-1.34c0.82-0.89,1.22-2.04,1.22-3.44c0-0.94-0.19-1.77-0.56-2.48
			c-0.37-0.71-0.89-1.27-1.55-1.68c-0.66-0.41-1.42-0.62-2.29-0.62c-1.29,0-2.34,0.45-3.15,1.34c-0.82,0.89-1.22,2.04-1.22,3.44
			c0,1.4,0.41,2.55,1.22,3.44C533.97,50.39,535.02,50.84,536.31,50.84z"/>
		<path d="M548.48,53.37V30.05h3.31v10.91c0.4-0.83,1.01-1.46,1.81-1.91s1.72-0.68,2.73-0.68c1.71,0,3.01,0.53,3.92,1.6
			c0.9,1.07,1.35,2.6,1.35,4.59v8.81h-3.31v-8.21c0-2.57-1-3.86-2.99-3.86c-1.09,0-1.95,0.36-2.58,1.09
			c-0.62,0.73-0.94,1.75-0.94,3.05v7.92H548.48z"/>
		<path d="M572.24,53.83c-1.69,0-2.95-0.46-3.77-1.37c-0.83-0.91-1.24-2.31-1.24-4.19V41.6h-3.05v-2.76h3.05v-4.06h3.31v4.06h4.78
			v2.76h-4.78v6.16c0,1.11,0.19,1.92,0.58,2.42c0.38,0.5,1.02,0.75,1.9,0.75c0.88,0,1.78-0.23,2.71-0.69l0.37,2.76
			c-0.48,0.27-1.06,0.48-1.73,0.62C573.69,53.76,572.98,53.83,572.24,53.83z"/>
	</g>
	<g>
		<path d="M738.12,386.64v-21.88h7.95c2.19,0,3.88,0.48,5.08,1.45c1.2,0.97,1.8,2.34,1.8,4.1c0,1.06-0.28,2-0.83,2.82
			c-0.56,0.83-1.32,1.44-2.3,1.84c1.32,0.29,2.37,0.91,3.14,1.87c0.77,0.96,1.15,2.12,1.15,3.48c0,2.01-0.66,3.57-1.99,4.66
			c-1.32,1.09-3.21,1.64-5.64,1.64H738.12z M745.66,367.46h-4.2V374h4.12c1.36,0,2.37-0.28,3.01-0.85c0.64-0.57,0.96-1.43,0.96-2.61
			C749.55,368.49,748.25,367.46,745.66,367.46z M746.15,376.62h-4.69v7.31h5.01c1.31,0,2.31-0.32,3.02-0.96
			c0.71-0.64,1.07-1.54,1.07-2.69C750.55,377.84,749.09,376.62,746.15,376.62z"/>
		<path d="M764,387.1c-1.32,0-2.5-0.33-3.53-0.99s-1.83-1.57-2.42-2.74s-0.88-2.49-0.88-3.99c0-1.46,0.31-2.77,0.94-3.93
			s1.47-2.09,2.55-2.78c1.07-0.69,2.26-1.04,3.57-1.04c1.06,0,2.02,0.25,2.88,0.75s1.55,1.2,2.07,2.1l0.06-2.39h3.2v14.54h-3.2
			l-0.06-2.39C768.09,386.15,766.36,387.1,764,387.1z M764.92,384.13c1.3,0,2.37-0.45,3.18-1.34c0.82-0.89,1.22-2.04,1.22-3.44
			c0-1.4-0.41-2.54-1.22-3.43c-0.82-0.88-1.88-1.32-3.18-1.32c-1.29,0-2.34,0.44-3.15,1.32c-0.82,0.88-1.22,2.03-1.22,3.43
			c0,1.4,0.41,2.55,1.22,3.44C762.58,383.69,763.63,384.13,764.92,384.13z"/>
		<path d="M781.16,387.1c-0.98,0-1.95-0.12-2.91-0.38c-0.96-0.25-1.72-0.58-2.27-1.01l0.43-2.65c0.65,0.46,1.4,0.82,2.25,1.08
			c0.84,0.26,1.65,0.39,2.42,0.39c0.94,0,1.66-0.15,2.17-0.46c0.51-0.31,0.76-0.74,0.76-1.29c0-0.37-0.08-0.67-0.24-0.91
			c-0.16-0.24-0.47-0.46-0.92-0.66c-0.45-0.2-1.1-0.42-1.94-0.65c-1.69-0.5-2.89-1.09-3.6-1.79c-0.71-0.69-1.07-1.6-1.07-2.74
			c0-1.36,0.51-2.44,1.53-3.22c1.02-0.79,2.41-1.18,4.17-1.18c0.84,0,1.7,0.11,2.58,0.33c0.87,0.22,1.58,0.49,2.12,0.82l-0.46,2.56
			c-1.32-0.77-2.71-1.15-4.15-1.15c-1.73,0-2.59,0.54-2.59,1.61c0,0.5,0.2,0.9,0.59,1.2c0.39,0.3,1.15,0.61,2.26,0.94
			c1.84,0.54,3.14,1.16,3.9,1.87s1.14,1.66,1.14,2.85c0,1.36-0.56,2.44-1.67,3.24C784.54,386.7,783.04,387.1,781.16,387.1z"/>
		<path d="M798.26,387.1c-1.71,0-3.18-0.31-4.42-0.94c-1.24-0.62-2.19-1.51-2.86-2.66c-0.67-1.15-1.01-2.51-1.01-4.09
			c0-1.54,0.31-2.88,0.94-4.04c0.62-1.16,1.49-2.07,2.61-2.73s2.38-0.99,3.8-0.99c1.36,0,2.55,0.3,3.57,0.89
			c1.02,0.6,1.8,1.43,2.36,2.5c0.56,1.08,0.83,2.34,0.83,3.8c0,0.46-0.03,0.94-0.09,1.44h-10.74c0.17,1.36,0.71,2.39,1.63,3.08
			c0.91,0.69,2.13,1.04,3.67,1.04c1.71,0,3.34-0.37,4.89-1.12l0.35,2.59c-0.69,0.38-1.53,0.69-2.52,0.91
			C800.28,386.99,799.28,387.1,798.26,387.1z M797.19,374.2c-1.07,0-1.96,0.34-2.66,1.01c-0.7,0.67-1.14,1.62-1.31,2.85h7.72
			c0-0.21-0.02-0.4-0.06-0.58c-0.15-1.06-0.55-1.87-1.18-2.43S798.23,374.2,797.19,374.2z"/>
		<path d="M808.08,386.64v-23.32h3.31v23.32H808.08z"/>
		<path d="M817.69,368.73c-0.6,0-1.09-0.2-1.48-0.59c-0.39-0.39-0.59-0.89-0.59-1.48c0-0.59,0.2-1.08,0.59-1.47
			c0.39-0.38,0.89-0.58,1.48-0.58c0.61,0,1.11,0.19,1.5,0.58c0.38,0.38,0.58,0.87,0.58,1.47c0,0.6-0.19,1.09-0.58,1.48
			C818.8,368.53,818.3,368.73,817.69,368.73z M816.05,386.64V372.1h3.31v14.54H816.05z"/>
		<path d="M824.02,386.64V372.1h3.2l0.03,2.25c0.42-0.84,1.04-1.51,1.84-1.99c0.81-0.48,1.74-0.72,2.79-0.72
			c1.71,0,3.01,0.53,3.92,1.6c0.9,1.06,1.35,2.6,1.35,4.59v8.81h-3.31v-8.21c0-2.57-1-3.86-2.99-3.86c-1.09,0-1.95,0.36-2.58,1.09
			c-0.62,0.73-0.94,1.75-0.94,3.05v7.92H824.02z"/>
		<path d="M849.1,387.1c-1.71,0-3.18-0.31-4.42-0.94c-1.24-0.62-2.19-1.51-2.86-2.66c-0.67-1.15-1.01-2.51-1.01-4.09
			c0-1.54,0.31-2.88,0.94-4.04c0.62-1.16,1.49-2.07,2.61-2.73s2.38-0.99,3.8-0.99c1.36,0,2.55,0.3,3.57,0.89
			c1.02,0.6,1.8,1.43,2.36,2.5c0.56,1.08,0.83,2.34,0.83,3.8c0,0.46-0.03,0.94-0.09,1.44h-10.74c0.17,1.36,0.71,2.39,1.63,3.08
			c0.91,0.69,2.13,1.04,3.67,1.04c1.71,0,3.34-0.37,4.89-1.12l0.35,2.59c-0.69,0.38-1.53,0.69-2.52,0.91
			C851.12,386.99,850.12,387.1,849.1,387.1z M848.03,374.2c-1.07,0-1.96,0.34-2.66,1.01c-0.7,0.67-1.14,1.62-1.31,2.85h7.72
			c0-0.21-0.02-0.4-0.06-0.58c-0.15-1.06-0.55-1.87-1.18-2.43S849.07,374.2,848.03,374.2z"/>
	</g>
	<g>
		<path d="M901.63,53.38l8.78-21.88h3.86l8.78,21.88h-3.83l-2.3-6.13h-9.39l-2.3,6.13H901.63z M908.6,44.39h7.28l-3.66-9.73
			L908.6,44.39z"/>
		<path d="M930.08,53.84c-0.98,0-1.95-0.12-2.91-0.37c-0.96-0.25-1.72-0.59-2.27-1.01l0.43-2.65c0.65,0.46,1.4,0.82,2.25,1.08
			c0.84,0.26,1.65,0.39,2.42,0.39c0.94,0,1.66-0.15,2.17-0.46c0.51-0.31,0.76-0.74,0.76-1.3c0-0.36-0.08-0.67-0.24-0.91
			c-0.16-0.24-0.47-0.46-0.92-0.66c-0.45-0.2-1.1-0.42-1.94-0.65c-1.69-0.5-2.89-1.09-3.6-1.79c-0.71-0.69-1.07-1.6-1.07-2.73
			c0-1.36,0.51-2.44,1.53-3.22c1.02-0.79,2.41-1.18,4.17-1.18c0.84,0,1.7,0.11,2.58,0.33c0.87,0.22,1.58,0.49,2.12,0.82l-0.46,2.56
			c-1.32-0.77-2.71-1.15-4.15-1.15c-1.73,0-2.59,0.54-2.59,1.61c0,0.5,0.2,0.9,0.59,1.19c0.39,0.3,1.15,0.61,2.26,0.94
			c1.84,0.54,3.14,1.16,3.9,1.87c0.76,0.71,1.14,1.66,1.14,2.85c0,1.36-0.56,2.44-1.67,3.24C933.46,53.44,931.96,53.84,930.08,53.84
			z"/>
		<path d="M946.86,53.75c-1.61,0-3.01-0.31-4.2-0.94c-1.19-0.62-2.12-1.5-2.78-2.63c-0.66-1.13-0.99-2.47-0.99-4
			s0.34-2.88,1.01-4.03c0.67-1.15,1.6-2.05,2.79-2.71c1.19-0.65,2.57-0.98,4.15-0.98c0.79,0,1.59,0.1,2.4,0.29
			c0.82,0.19,1.52,0.45,2.12,0.78l-0.43,2.82c-0.58-0.29-1.21-0.52-1.91-0.69c-0.7-0.17-1.36-0.26-1.97-0.26
			c-1.46,0-2.62,0.42-3.48,1.27c-0.86,0.84-1.3,1.99-1.3,3.43c0,1.46,0.44,2.61,1.31,3.44s2.08,1.25,3.61,1.25
			c0.63,0,1.28-0.07,1.93-0.22c0.65-0.14,1.35-0.37,2.1-0.68l0.37,2.73c-0.65,0.36-1.39,0.64-2.22,0.83
			C948.54,53.65,947.71,53.75,946.86,53.75z"/>
		<path d="M962.55,53.84c-1.71,0-3.18-0.31-4.42-0.94c-1.24-0.62-2.19-1.51-2.86-2.66c-0.67-1.15-1.01-2.51-1.01-4.09
			c0-1.54,0.31-2.88,0.94-4.04s1.49-2.07,2.61-2.74s2.38-0.99,3.8-0.99c1.36,0,2.55,0.3,3.57,0.89c1.02,0.6,1.8,1.43,2.36,2.5
			c0.56,1.08,0.83,2.34,0.83,3.8c0,0.46-0.03,0.94-0.09,1.44h-10.74c0.17,1.36,0.71,2.39,1.63,3.08s2.13,1.04,3.67,1.04
			c1.71,0,3.34-0.37,4.89-1.12l0.34,2.59c-0.69,0.38-1.53,0.69-2.52,0.91C964.57,53.73,963.57,53.84,962.55,53.84z M961.49,40.94
			c-1.07,0-1.96,0.34-2.66,1.01c-0.7,0.67-1.14,1.62-1.31,2.85h7.72c0-0.21-0.02-0.4-0.06-0.58c-0.15-1.06-0.55-1.87-1.18-2.43
			C963.36,41.22,962.53,40.94,961.49,40.94z"/>
		<path d="M972.37,53.38V38.84h3.2l0.03,2.25c0.42-0.84,1.04-1.51,1.84-1.99c0.81-0.48,1.74-0.72,2.79-0.72
			c1.71,0,3.01,0.53,3.92,1.6c0.9,1.07,1.35,2.6,1.35,4.59v8.81h-3.31v-8.21c0-2.57-1-3.86-2.99-3.86c-1.09,0-1.95,0.36-2.58,1.09
			s-0.94,1.75-0.94,3.05v7.92H972.37z"/>
		<path d="M995.98,53.84c-1.33,0-2.5-0.33-3.53-0.99c-1.03-0.66-1.83-1.57-2.42-2.73c-0.59-1.16-0.88-2.49-0.88-3.99
			c0-1.46,0.31-2.77,0.94-3.93c0.62-1.16,1.47-2.09,2.55-2.78c1.07-0.69,2.26-1.04,3.57-1.04c1.04,0,1.98,0.24,2.84,0.72
			c0.85,0.48,1.54,1.15,2.06,2.02V30.06h3.31v23.32h-3.2l-0.06-2.39C1000.07,52.89,998.34,53.84,995.98,53.84z M996.9,50.87
			c1.3,0,2.37-0.45,3.18-1.34c0.82-0.89,1.22-2.04,1.22-3.44s-0.41-2.54-1.22-3.43c-0.82-0.88-1.88-1.32-3.18-1.32
			c-1.29,0-2.34,0.44-3.15,1.32c-0.82,0.88-1.22,2.03-1.22,3.43s0.41,2.55,1.22,3.44C994.56,50.43,995.61,50.87,996.9,50.87z"/>
		<path d="M1016.45,53.84c-1.71,0-3.18-0.31-4.42-0.94c-1.24-0.62-2.19-1.51-2.87-2.66c-0.67-1.15-1.01-2.51-1.01-4.09
			c0-1.54,0.31-2.88,0.94-4.04c0.62-1.16,1.49-2.07,2.61-2.74c1.11-0.66,2.38-0.99,3.8-0.99c1.36,0,2.55,0.3,3.57,0.89
			c1.02,0.6,1.8,1.43,2.36,2.5c0.56,1.08,0.83,2.34,0.83,3.8c0,0.46-0.03,0.94-0.09,1.44h-10.74c0.17,1.36,0.71,2.39,1.63,3.08
			c0.91,0.69,2.13,1.04,3.67,1.04c1.71,0,3.34-0.37,4.89-1.12l0.34,2.59c-0.69,0.38-1.53,0.69-2.52,0.91
			C1018.47,53.73,1017.46,53.84,1016.45,53.84z M1015.38,40.94c-1.08,0-1.96,0.34-2.66,1.01c-0.7,0.67-1.14,1.62-1.31,2.85h7.72
			c0-0.21-0.02-0.4-0.06-0.58c-0.15-1.06-0.55-1.87-1.18-2.43C1017.25,41.22,1016.42,40.94,1015.38,40.94z"/>
		<path d="M1026.26,53.38V38.84h3.17l0.03,2.91c0.38-1,0.94-1.77,1.67-2.32s1.56-0.82,2.5-0.82c0.31,0,0.62,0.03,0.94,0.09
			c0.32,0.06,0.57,0.13,0.76,0.23l-0.32,3.11c-0.56-0.23-1.15-0.35-1.79-0.35c-1.15,0-2.05,0.42-2.69,1.27
			c-0.64,0.84-0.96,2.03-0.96,3.57v6.85H1026.26z"/>
		<path d="M1045.41,53.38V31.5h3.6v18.89h10.28v2.99H1045.41z"/>
		<path d="M1064.27,35.47c-0.59,0-1.09-0.2-1.48-0.59c-0.39-0.39-0.59-0.89-0.59-1.48s0.2-1.08,0.59-1.47s0.89-0.58,1.48-0.58
			c0.61,0,1.11,0.19,1.5,0.58s0.58,0.87,0.58,1.47s-0.19,1.09-0.58,1.48C1065.38,35.27,1064.88,35.47,1064.27,35.47z M1062.62,53.38
			V38.84h3.31v14.54H1062.62z"/>
		<path d="M1070.6,53.38V38.84h3.2l0.03,2.25c0.42-0.84,1.04-1.51,1.84-1.99c0.81-0.48,1.74-0.72,2.79-0.72
			c1.71,0,3.01,0.53,3.92,1.6c0.9,1.07,1.35,2.6,1.35,4.59v8.81h-3.31v-8.21c0-2.57-1-3.86-2.99-3.86c-1.09,0-1.95,0.36-2.58,1.09
			s-0.94,1.75-0.94,3.05v7.92H1070.6z"/>
		<path d="M1095.67,53.84c-1.71,0-3.18-0.31-4.42-0.94c-1.24-0.62-2.19-1.51-2.87-2.66c-0.67-1.15-1.01-2.51-1.01-4.09
			c0-1.54,0.31-2.88,0.94-4.04c0.62-1.16,1.49-2.07,2.61-2.74c1.11-0.66,2.38-0.99,3.8-0.99c1.36,0,2.55,0.3,3.57,0.89
			c1.02,0.6,1.8,1.43,2.36,2.5c0.56,1.08,0.83,2.34,0.83,3.8c0,0.46-0.03,0.94-0.09,1.44h-10.74c0.17,1.36,0.71,2.39,1.63,3.08
			c0.91,0.69,2.13,1.04,3.67,1.04c1.71,0,3.34-0.37,4.89-1.12l0.34,2.59c-0.69,0.38-1.53,0.69-2.52,0.91
			C1097.69,53.73,1096.69,53.84,1095.67,53.84z M1094.61,40.94c-1.08,0-1.96,0.34-2.66,1.01c-0.7,0.67-1.14,1.62-1.31,2.85h7.72
			c0-0.21-0.02-0.4-0.06-0.58c-0.15-1.06-0.55-1.87-1.18-2.43C1096.48,41.22,1095.65,40.94,1094.61,40.94z"/>
	</g>
	<g>
		<path d="M289.73,386.64v-21.88h8.21c2.46,0,4.56,0.44,6.32,1.31c1.76,0.87,3.1,2.12,4.05,3.74c0.94,1.62,1.41,3.58,1.41,5.86
			c0,2.32-0.48,4.3-1.44,5.93c-0.96,1.63-2.35,2.88-4.16,3.74c-1.81,0.86-4.02,1.3-6.61,1.3H289.73z M297.5,367.72h-4.2v15.95h4.17
			c5.64,0,8.46-2.66,8.46-7.97C305.94,370.38,303.13,367.72,297.5,367.72z"/>
		<path d="M320.82,387.1c-1.71,0-3.18-0.31-4.42-0.94c-1.24-0.62-2.19-1.51-2.86-2.66c-0.67-1.15-1.01-2.51-1.01-4.09
			c0-1.54,0.31-2.88,0.94-4.04c0.62-1.16,1.49-2.07,2.61-2.73s2.38-0.99,3.8-0.99c1.36,0,2.55,0.3,3.57,0.89
			c1.02,0.6,1.8,1.43,2.36,2.5c0.56,1.08,0.83,2.34,0.83,3.8c0,0.46-0.03,0.94-0.09,1.44h-10.74c0.17,1.36,0.71,2.39,1.63,3.08
			c0.91,0.69,2.13,1.04,3.67,1.04c1.71,0,3.34-0.37,4.89-1.12l0.35,2.59c-0.69,0.38-1.53,0.69-2.52,0.91
			C322.84,386.99,321.84,387.1,320.82,387.1z M319.76,374.2c-1.07,0-1.96,0.34-2.66,1.01c-0.7,0.67-1.14,1.62-1.31,2.85h7.72
			c0-0.21-0.02-0.4-0.06-0.58c-0.15-1.06-0.55-1.87-1.18-2.43S320.8,374.2,319.76,374.2z"/>
		<path d="M335.13,387.1c-0.98,0-1.95-0.12-2.91-0.38c-0.96-0.25-1.72-0.58-2.27-1.01l0.43-2.65c0.65,0.46,1.4,0.82,2.25,1.08
			c0.84,0.26,1.65,0.39,2.42,0.39c0.94,0,1.66-0.15,2.17-0.46c0.51-0.31,0.76-0.74,0.76-1.29c0-0.37-0.08-0.67-0.24-0.91
			c-0.16-0.24-0.47-0.46-0.92-0.66c-0.45-0.2-1.1-0.42-1.94-0.65c-1.69-0.5-2.89-1.09-3.6-1.79c-0.71-0.69-1.07-1.6-1.07-2.74
			c0-1.36,0.51-2.44,1.53-3.22c1.02-0.79,2.41-1.18,4.17-1.18c0.84,0,1.7,0.11,2.58,0.33c0.87,0.22,1.58,0.49,2.12,0.82l-0.46,2.56
			c-1.32-0.77-2.71-1.15-4.15-1.15c-1.73,0-2.59,0.54-2.59,1.61c0,0.5,0.2,0.9,0.59,1.2c0.39,0.3,1.15,0.61,2.26,0.94
			c1.84,0.54,3.14,1.16,3.9,1.87s1.14,1.66,1.14,2.85c0,1.36-0.56,2.44-1.67,3.24C338.51,386.7,337.01,387.1,335.13,387.1z"/>
		<path d="M351.92,387.01c-1.61,0-3.01-0.31-4.2-0.94c-1.19-0.62-2.12-1.5-2.78-2.63s-0.99-2.47-0.99-4s0.34-2.88,1.01-4.03
			c0.67-1.15,1.6-2.05,2.79-2.71c1.19-0.65,2.57-0.98,4.15-0.98c0.79,0,1.59,0.1,2.4,0.29c0.82,0.19,1.52,0.45,2.12,0.78l-0.43,2.82
			c-0.58-0.29-1.21-0.52-1.91-0.69s-1.36-0.26-1.97-0.26c-1.46,0-2.62,0.42-3.48,1.27c-0.86,0.84-1.3,1.99-1.3,3.43
			c0,1.46,0.44,2.61,1.31,3.44s2.08,1.25,3.61,1.25c0.63,0,1.28-0.07,1.93-0.22c0.65-0.14,1.35-0.37,2.1-0.68l0.37,2.73
			c-0.65,0.37-1.39,0.64-2.22,0.83C353.6,386.92,352.76,387.01,351.92,387.01z"/>
		<path d="M367.61,387.1c-1.71,0-3.18-0.31-4.42-0.94c-1.24-0.62-2.19-1.51-2.86-2.66c-0.67-1.15-1.01-2.51-1.01-4.09
			c0-1.54,0.31-2.88,0.94-4.04c0.62-1.16,1.49-2.07,2.61-2.73s2.38-0.99,3.8-0.99c1.36,0,2.55,0.3,3.57,0.89
			c1.02,0.6,1.8,1.43,2.36,2.5c0.56,1.08,0.83,2.34,0.83,3.8c0,0.46-0.03,0.94-0.09,1.44H362.6c0.17,1.36,0.71,2.39,1.63,3.08
			c0.91,0.69,2.13,1.04,3.67,1.04c1.71,0,3.34-0.37,4.89-1.12l0.35,2.59c-0.69,0.38-1.53,0.69-2.52,0.91
			C369.63,386.99,368.62,387.1,367.61,387.1z M366.54,374.2c-1.07,0-1.96,0.34-2.66,1.01c-0.7,0.67-1.14,1.62-1.31,2.85h7.72
			c0-0.21-0.02-0.4-0.06-0.58c-0.15-1.06-0.55-1.87-1.18-2.43S367.58,374.2,366.54,374.2z"/>
		<path d="M377.42,386.64V372.1h3.2l0.03,2.25c0.42-0.84,1.04-1.51,1.84-1.99c0.81-0.48,1.74-0.72,2.79-0.72
			c1.71,0,3.01,0.53,3.92,1.6c0.9,1.06,1.35,2.6,1.35,4.59v8.81h-3.31v-8.21c0-2.57-1-3.86-2.99-3.86c-1.09,0-1.95,0.36-2.58,1.09
			c-0.62,0.73-0.94,1.75-0.94,3.05v7.92H377.42z"/>
		<path d="M401.03,387.1c-1.32,0-2.5-0.33-3.53-0.99s-1.83-1.57-2.42-2.74s-0.88-2.49-0.88-3.99c0-1.46,0.31-2.77,0.94-3.93
			s1.47-2.09,2.55-2.78c1.07-0.69,2.26-1.04,3.57-1.04c1.04,0,1.98,0.24,2.84,0.72c0.85,0.48,1.54,1.15,2.06,2.01v-11.05h3.31v23.32
			h-3.2l-0.06-2.39C405.12,386.15,403.39,387.1,401.03,387.1z M401.95,384.13c1.3,0,2.37-0.45,3.18-1.34
			c0.82-0.89,1.22-2.04,1.22-3.44c0-1.4-0.41-2.54-1.22-3.43c-0.82-0.88-1.88-1.32-3.18-1.32c-1.29,0-2.34,0.44-3.15,1.32
			c-0.82,0.88-1.22,2.03-1.22,3.43c0,1.4,0.41,2.55,1.22,3.44C399.62,383.69,400.67,384.13,401.95,384.13z"/>
		<path d="M421.5,387.1c-1.71,0-3.18-0.31-4.42-0.94c-1.24-0.62-2.19-1.51-2.86-2.66c-0.67-1.15-1.01-2.51-1.01-4.09
			c0-1.54,0.31-2.88,0.94-4.04c0.62-1.16,1.49-2.07,2.61-2.73s2.38-0.99,3.8-0.99c1.36,0,2.55,0.3,3.57,0.89
			c1.02,0.6,1.8,1.43,2.36,2.5c0.56,1.08,0.83,2.34,0.83,3.8c0,0.46-0.03,0.94-0.09,1.44h-10.74c0.17,1.36,0.71,2.39,1.63,3.08
			c0.91,0.69,2.13,1.04,3.67,1.04c1.71,0,3.34-0.37,4.89-1.12l0.35,2.59c-0.69,0.38-1.53,0.69-2.52,0.91
			C423.52,386.99,422.52,387.1,421.5,387.1z M420.44,374.2c-1.07,0-1.96,0.34-2.66,1.01c-0.7,0.67-1.14,1.62-1.31,2.85h7.72
			c0-0.21-0.02-0.4-0.06-0.58c-0.15-1.06-0.55-1.87-1.18-2.43S421.47,374.2,420.44,374.2z"/>
		<path d="M431.32,386.64V372.1h3.17l0.03,2.91c0.38-1,0.94-1.77,1.67-2.32c0.73-0.55,1.56-0.82,2.5-0.82
			c0.31,0,0.62,0.03,0.94,0.09c0.32,0.06,0.57,0.13,0.76,0.23l-0.32,3.11c-0.56-0.23-1.15-0.35-1.78-0.35
			c-1.15,0-2.05,0.42-2.69,1.27c-0.64,0.84-0.96,2.03-0.96,3.57v6.85H431.32z"/>
		<path d="M450.46,386.64v-21.88h3.6v18.89h10.28v2.99H450.46z"/>
		<path d="M469.32,368.73c-0.6,0-1.09-0.2-1.48-0.59c-0.39-0.39-0.59-0.89-0.59-1.48c0-0.59,0.2-1.08,0.59-1.47
			c0.39-0.38,0.89-0.58,1.48-0.58c0.61,0,1.11,0.19,1.5,0.58c0.38,0.38,0.58,0.87,0.58,1.47c0,0.6-0.19,1.09-0.58,1.48
			C470.43,368.53,469.93,368.73,469.32,368.73z M467.68,386.64V372.1h3.31v14.54H467.68z"/>
		<path d="M475.65,386.64V372.1h3.2l0.03,2.25c0.42-0.84,1.04-1.51,1.84-1.99c0.81-0.48,1.74-0.72,2.79-0.72
			c1.71,0,3.01,0.53,3.92,1.6c0.9,1.06,1.35,2.6,1.35,4.59v8.81h-3.31v-8.21c0-2.57-1-3.86-2.99-3.86c-1.09,0-1.95,0.36-2.58,1.09
			c-0.62,0.73-0.94,1.75-0.94,3.05v7.92H475.65z"/>
		<path d="M500.73,387.1c-1.71,0-3.18-0.31-4.42-0.94c-1.24-0.62-2.19-1.51-2.86-2.66c-0.67-1.15-1.01-2.51-1.01-4.09
			c0-1.54,0.31-2.88,0.94-4.04c0.62-1.16,1.49-2.07,2.61-2.73s2.38-0.99,3.8-0.99c1.36,0,2.55,0.3,3.57,0.89
			c1.02,0.6,1.8,1.43,2.36,2.5c0.56,1.08,0.83,2.34,0.83,3.8c0,0.46-0.03,0.94-0.09,1.44h-10.74c0.17,1.36,0.71,2.39,1.63,3.08
			c0.91,0.69,2.13,1.04,3.67,1.04c1.71,0,3.34-0.37,4.89-1.12l0.35,2.59c-0.69,0.38-1.53,0.69-2.52,0.91
			C502.75,386.99,501.75,387.1,500.73,387.1z M499.66,374.2c-1.07,0-1.96,0.34-2.66,1.01c-0.7,0.67-1.14,1.62-1.31,2.85h7.72
			c0-0.21-0.02-0.4-0.06-0.58c-0.15-1.06-0.55-1.87-1.18-2.43S500.7,374.2,499.66,374.2z"/>
	</g>
	<g>
		<path d="M1482.47,53.38l8.03-11.43l-7.34-10.45h4.23l5.38,8.09l5.38-8.09h4.03l-7.4,10.57l7.95,11.31h-4.23l-6.02-8.95l-5.96,8.95
			H1482.47z"/>
		<path d="M1504.07,46.61v-3.02h8.67v3.02H1504.07z"/>
		<path d="M1517.46,53.38V31.5h3.6v9.07h11.66V31.5h3.6v21.88h-3.6v-9.85h-11.66v9.85H1517.46z"/>
		<path d="M1548.81,53.84c-1.71,0-3.18-0.31-4.42-0.94c-1.24-0.62-2.19-1.51-2.87-2.66c-0.67-1.15-1.01-2.51-1.01-4.09
			c0-1.54,0.31-2.88,0.94-4.04c0.62-1.16,1.49-2.07,2.61-2.74c1.11-0.66,2.38-0.99,3.8-0.99c1.36,0,2.55,0.3,3.57,0.89
			c1.02,0.6,1.8,1.43,2.36,2.5c0.56,1.08,0.83,2.34,0.83,3.8c0,0.46-0.03,0.94-0.09,1.44h-10.74c0.17,1.36,0.71,2.39,1.63,3.08
			c0.91,0.69,2.13,1.04,3.67,1.04c1.71,0,3.34-0.37,4.89-1.12l0.34,2.59c-0.69,0.38-1.53,0.69-2.52,0.91
			C1550.83,53.73,1549.82,53.84,1548.81,53.84z M1547.74,40.94c-1.08,0-1.96,0.34-2.66,1.01c-0.7,0.67-1.14,1.62-1.31,2.85h7.72
			c0-0.21-0.02-0.4-0.06-0.58c-0.15-1.06-0.55-1.87-1.18-2.43C1549.61,41.22,1548.78,40.94,1547.74,40.94z"/>
		<path d="M1560.26,35.47c-0.59,0-1.09-0.2-1.48-0.59c-0.39-0.39-0.59-0.89-0.59-1.48s0.2-1.08,0.59-1.47s0.89-0.58,1.48-0.58
			c0.61,0,1.11,0.19,1.5,0.58s0.58,0.87,0.58,1.47s-0.19,1.09-0.58,1.48C1561.38,35.27,1560.88,35.47,1560.26,35.47z M1558.62,53.38
			V38.84h3.31v14.54H1558.62z"/>
		<path d="M1572.87,60.69c-1.06,0-2.11-0.12-3.15-0.36c-1.05-0.24-1.84-0.54-2.38-0.91l0.38-2.85c0.65,0.38,1.42,0.69,2.3,0.92
			c0.88,0.23,1.76,0.35,2.62,0.35c1.71,0,2.97-0.43,3.8-1.28s1.24-2.15,1.24-3.9v-1.73c-0.54,0.9-1.25,1.6-2.13,2.09
			s-1.9,0.73-3.05,0.73c-1.33,0-2.5-0.33-3.53-0.98c-1.03-0.65-1.83-1.56-2.42-2.72c-0.59-1.16-0.88-2.48-0.88-3.96
			c0-1.44,0.31-2.74,0.94-3.92c0.62-1.17,1.47-2.1,2.55-2.78c1.07-0.68,2.27-1.02,3.6-1.02c1.04,0,1.99,0.25,2.85,0.75
			c0.86,0.5,1.55,1.2,2.07,2.1l0.06-2.39h3.2v13.59c0,2.73-0.68,4.78-2.03,6.18C1577.55,59.99,1575.54,60.69,1572.87,60.69z
			 M1573.42,50.84c1.3,0,2.37-0.45,3.18-1.34c0.82-0.89,1.22-2.04,1.22-3.44c0-0.94-0.19-1.77-0.56-2.48
			c-0.38-0.71-0.89-1.27-1.55-1.68c-0.66-0.41-1.43-0.62-2.29-0.62c-1.29,0-2.34,0.45-3.15,1.34c-0.82,0.89-1.22,2.04-1.22,3.44
			c0,1.4,0.41,2.55,1.22,3.44C1571.08,50.4,1572.13,50.84,1573.42,50.84z"/>
		<path d="M1585.6,53.38V30.06h3.31v10.91c0.4-0.83,1.01-1.46,1.81-1.91c0.81-0.45,1.72-0.68,2.73-0.68c1.71,0,3.01,0.53,3.92,1.6
			c0.9,1.07,1.35,2.6,1.35,4.59v8.81h-3.31v-8.21c0-2.57-1-3.86-2.99-3.86c-1.09,0-1.95,0.36-2.58,1.09s-0.94,1.75-0.94,3.05v7.92
			H1585.6z"/>
		<path d="M1609.35,53.84c-1.69,0-2.95-0.46-3.77-1.37c-0.83-0.91-1.24-2.31-1.24-4.19V41.6h-3.05v-2.76h3.05v-4.06h3.31v4.06h4.78
			v2.76h-4.78v6.16c0,1.11,0.19,1.92,0.58,2.42c0.38,0.5,1.02,0.75,1.9,0.75s1.79-0.23,2.71-0.69l0.37,2.76
			c-0.48,0.27-1.06,0.48-1.73,0.62C1610.81,53.77,1610.1,53.84,1609.35,53.84z"/>
	</g>
	<g>
		<path d="M740.7,450.53c-0.86,0-1.75-0.08-2.66-0.23c-0.91-0.15-1.76-0.36-2.55-0.63c-0.79-0.27-1.45-0.58-1.99-0.92l0.37-3.11
			c0.92,0.56,1.99,1.01,3.21,1.37c1.22,0.36,2.38,0.53,3.47,0.53c1.44,0,2.57-0.29,3.4-0.88c0.82-0.59,1.24-1.4,1.24-2.43
			c0-0.59-0.14-1.1-0.42-1.53c-0.28-0.42-0.76-0.81-1.44-1.17c-0.68-0.36-1.64-0.72-2.86-1.11c-1.61-0.5-2.9-1.04-3.86-1.63
			c-0.96-0.58-1.65-1.27-2.07-2.06c-0.42-0.79-0.63-1.73-0.63-2.82c0-1.27,0.31-2.36,0.94-3.28c0.62-0.92,1.5-1.64,2.63-2.14
			c1.13-0.51,2.46-0.76,3.97-0.76c1.11,0,2.24,0.14,3.38,0.43c1.14,0.29,2.13,0.68,2.98,1.18l-0.52,2.99
			c-0.83-0.5-1.75-0.89-2.78-1.18s-2.02-0.43-2.98-0.43c-1.31,0-2.32,0.26-3.05,0.79c-0.73,0.53-1.09,1.27-1.09,2.23
			c0,0.56,0.12,1.04,0.37,1.44c0.25,0.4,0.68,0.76,1.3,1.08s1.47,0.66,2.56,1.02c1.75,0.56,3.14,1.15,4.19,1.77
			c1.05,0.62,1.8,1.33,2.27,2.13c0.47,0.8,0.71,1.73,0.71,2.81c0,2.03-0.72,3.63-2.16,4.79S743.21,450.53,740.7,450.53z"/>
		<path d="M758.78,450.53c-1.32,0-2.5-0.33-3.53-0.99s-1.83-1.57-2.42-2.74s-0.88-2.49-0.88-3.99c0-1.46,0.31-2.77,0.94-3.93
			s1.47-2.09,2.55-2.78c1.07-0.69,2.26-1.04,3.57-1.04c1.06,0,2.02,0.25,2.88,0.75s1.55,1.2,2.07,2.1l0.06-2.39h3.2v14.54h-3.2
			l-0.06-2.39C762.86,449.58,761.14,450.53,758.78,450.53z M759.7,447.56c1.3,0,2.37-0.45,3.18-1.34c0.82-0.89,1.22-2.04,1.22-3.44
			c0-1.4-0.41-2.54-1.22-3.43c-0.82-0.88-1.88-1.32-3.18-1.32c-1.29,0-2.34,0.44-3.15,1.32c-0.82,0.88-1.22,2.03-1.22,3.43
			c0,1.4,0.41,2.55,1.22,3.44C757.36,447.12,758.41,447.56,759.7,447.56z"/>
		<path d="M771.88,450.07v-14.54h3.2l0.03,2.25c0.42-0.84,1.04-1.51,1.84-1.99c0.81-0.48,1.74-0.72,2.79-0.72
			c1.71,0,3.01,0.53,3.92,1.6c0.9,1.06,1.35,2.6,1.35,4.59v8.81h-3.31v-8.21c0-2.57-1-3.86-2.99-3.86c-1.09,0-1.95,0.36-2.58,1.09
			c-0.62,0.73-0.94,1.75-0.94,3.05v7.92H771.88z"/>
		<path d="M789.18,443.3v-3.02h8.67v3.02H789.18z"/>
		<path d="M808.52,450.53c-0.86,0-1.75-0.08-2.66-0.23c-0.91-0.15-1.76-0.36-2.55-0.63c-0.79-0.27-1.45-0.58-1.99-0.92l0.37-3.11
			c0.92,0.56,1.99,1.01,3.21,1.37c1.22,0.36,2.38,0.53,3.47,0.53c1.44,0,2.57-0.29,3.4-0.88c0.82-0.59,1.24-1.4,1.24-2.43
			c0-0.59-0.14-1.1-0.42-1.53c-0.28-0.42-0.76-0.81-1.44-1.17c-0.68-0.36-1.64-0.72-2.86-1.11c-1.61-0.5-2.9-1.04-3.86-1.63
			c-0.96-0.58-1.65-1.27-2.07-2.06c-0.42-0.79-0.63-1.73-0.63-2.82c0-1.27,0.31-2.36,0.94-3.28c0.62-0.92,1.5-1.64,2.63-2.14
			c1.13-0.51,2.46-0.76,3.97-0.76c1.11,0,2.24,0.14,3.38,0.43c1.14,0.29,2.13,0.68,2.98,1.18l-0.52,2.99
			c-0.83-0.5-1.75-0.89-2.78-1.18s-2.02-0.43-2.98-0.43c-1.31,0-2.32,0.26-3.05,0.79c-0.73,0.53-1.09,1.27-1.09,2.23
			c0,0.56,0.12,1.04,0.37,1.44c0.25,0.4,0.68,0.76,1.3,1.08s1.47,0.66,2.56,1.02c1.75,0.56,3.14,1.15,4.19,1.77
			c1.05,0.62,1.8,1.33,2.27,2.13c0.47,0.8,0.71,1.73,0.71,2.81c0,2.03-0.72,3.63-2.16,4.79S811.04,450.53,808.52,450.53z"/>
		<path d="M828.07,450.53c-1.71,0-3.18-0.31-4.42-0.94c-1.24-0.62-2.19-1.51-2.86-2.66c-0.67-1.15-1.01-2.51-1.01-4.09
			c0-1.54,0.31-2.88,0.94-4.04c0.62-1.16,1.49-2.07,2.61-2.73s2.38-0.99,3.8-0.99c1.36,0,2.55,0.3,3.57,0.89
			c1.02,0.6,1.8,1.43,2.36,2.5c0.56,1.08,0.83,2.34,0.83,3.8c0,0.46-0.03,0.94-0.09,1.44h-10.74c0.17,1.36,0.71,2.39,1.63,3.08
			c0.91,0.69,2.13,1.04,3.67,1.04c1.71,0,3.34-0.37,4.89-1.12l0.35,2.59c-0.69,0.38-1.53,0.69-2.52,0.91
			C830.09,450.42,829.09,450.53,828.07,450.53z M827.01,437.63c-1.07,0-1.96,0.34-2.66,1.01c-0.7,0.67-1.14,1.62-1.31,2.85h7.72
			c0-0.21-0.02-0.4-0.06-0.58c-0.15-1.06-0.55-1.87-1.18-2.43S828.04,437.63,827.01,437.63z"/>
		<path d="M837.89,450.07v-14.54h3.17l0.03,2.91c0.38-1,0.94-1.77,1.67-2.32c0.73-0.55,1.56-0.82,2.5-0.82
			c0.31,0,0.62,0.03,0.94,0.09c0.32,0.06,0.57,0.13,0.76,0.23l-0.32,3.11c-0.56-0.23-1.15-0.35-1.78-0.35
			c-1.15,0-2.05,0.42-2.69,1.27c-0.64,0.84-0.96,2.03-0.96,3.57v6.85H837.89z"/>
		<path d="M851.82,432.16c-0.6,0-1.09-0.2-1.48-0.59c-0.39-0.39-0.59-0.89-0.59-1.48c0-0.59,0.2-1.08,0.59-1.47
			c0.39-0.38,0.89-0.58,1.48-0.58c0.61,0,1.11,0.19,1.5,0.58c0.38,0.38,0.58,0.87,0.58,1.47c0,0.6-0.19,1.09-0.58,1.48
			C852.94,431.96,852.44,432.16,851.82,432.16z M850.18,450.07v-14.54h3.31v14.54H850.18z"/>
		<path d="M859.28,450.07v-11.78h-2.79v-2.76h2.79v-2.04c0-2.23,0.51-3.93,1.54-5.11c1.03-1.18,2.51-1.77,4.45-1.77
			c0.59,0,1.18,0.06,1.74,0.17c0.57,0.12,1.05,0.27,1.45,0.46l-0.32,2.71c-0.37-0.13-0.76-0.24-1.18-0.32
			c-0.42-0.08-0.83-0.12-1.21-0.12c-1.11,0-1.92,0.34-2.42,1.01c-0.5,0.67-0.75,1.78-0.75,3.31v1.7h4.2v2.76h-4.2v11.78H859.28z"/>
	</g>
	<g>
		<path d="M1656.67,450.07v-18.89h-7.25v-2.99h18.11v2.99h-7.25v18.89H1656.67z"/>
		<path d="M1675.21,450.53c-1.71,0-3.18-0.31-4.42-0.94c-1.24-0.62-2.19-1.51-2.87-2.66c-0.67-1.15-1.01-2.51-1.01-4.09
			c0-1.54,0.31-2.88,0.94-4.04c0.62-1.16,1.49-2.07,2.61-2.73c1.11-0.66,2.38-0.99,3.8-0.99c1.36,0,2.55,0.3,3.57,0.89
			c1.02,0.6,1.8,1.43,2.36,2.5c0.56,1.08,0.83,2.34,0.83,3.8c0,0.46-0.03,0.94-0.09,1.44h-10.74c0.17,1.36,0.71,2.39,1.63,3.08
			c0.91,0.69,2.13,1.04,3.67,1.04c1.71,0,3.34-0.37,4.89-1.12l0.34,2.59c-0.69,0.38-1.53,0.69-2.52,0.91
			C1677.23,450.42,1676.23,450.53,1675.21,450.53z M1674.15,437.63c-1.08,0-1.96,0.34-2.66,1.01s-1.14,1.62-1.31,2.85h7.72
			c0-0.21-0.02-0.4-0.06-0.58c-0.15-1.06-0.55-1.87-1.18-2.43C1676.02,437.91,1675.19,437.63,1674.15,437.63z"/>
		<path d="M1685.03,450.07v-14.54h3.17l0.03,2.91c0.38-1,0.94-1.77,1.67-2.32c0.73-0.55,1.56-0.82,2.5-0.82
			c0.31,0,0.62,0.03,0.94,0.09s0.57,0.13,0.76,0.23l-0.32,3.11c-0.56-0.23-1.15-0.35-1.79-0.35c-1.15,0-2.05,0.42-2.69,1.27
			c-0.64,0.84-0.96,2.03-0.96,3.57v6.85H1685.03z"/>
		<path d="M1697.33,450.07v-14.54h3.17l0.06,2.25c0.38-0.86,0.98-1.53,1.79-2c0.81-0.47,1.73-0.71,2.76-0.71
			c2.25,0,3.77,0.99,4.58,2.97c0.4-0.9,1.04-1.62,1.9-2.16s1.85-0.81,2.96-0.81c1.71,0,3.02,0.53,3.93,1.6
			c0.91,1.06,1.37,2.6,1.37,4.59v8.81h-3.31v-8.21c0-2.57-0.99-3.86-2.97-3.86c-1.06,0-1.88,0.36-2.46,1.09
			c-0.59,0.73-0.88,1.75-0.88,3.05v7.92h-3.31v-8.21c0-2.57-0.98-3.86-2.94-3.86c-1.06,0-1.88,0.36-2.46,1.08
			c-0.58,0.72-0.88,1.73-0.88,3.04v7.95H1697.33z"/>
		<path d="M1726.03,432.16c-0.59,0-1.09-0.2-1.48-0.59s-0.59-0.89-0.59-1.48c0-0.59,0.2-1.08,0.59-1.47s0.89-0.58,1.48-0.58
			c0.61,0,1.11,0.19,1.5,0.58s0.58,0.87,0.58,1.47c0,0.6-0.19,1.09-0.58,1.48S1726.64,432.16,1726.03,432.16z M1724.39,450.07
			v-14.54h3.31v14.54H1724.39z"/>
		<path d="M1732.36,450.07v-14.54h3.2l0.03,2.25c0.42-0.84,1.04-1.51,1.84-1.99c0.81-0.48,1.74-0.72,2.79-0.72
			c1.71,0,3.01,0.53,3.92,1.6c0.9,1.06,1.35,2.6,1.35,4.59v8.81h-3.31v-8.21c0-2.57-1-3.86-2.99-3.86c-1.09,0-1.95,0.36-2.58,1.09
			s-0.94,1.75-0.94,3.05v7.92H1732.36z"/>
		<path d="M1755.97,450.53c-1.33,0-2.5-0.33-3.53-0.99c-1.03-0.66-1.83-1.57-2.42-2.74c-0.59-1.16-0.88-2.49-0.88-3.99
			c0-1.46,0.31-2.77,0.94-3.93c0.62-1.16,1.47-2.09,2.55-2.78c1.07-0.69,2.26-1.04,3.57-1.04c1.06,0,2.02,0.25,2.88,0.75
			c0.86,0.5,1.55,1.2,2.07,2.1l0.06-2.39h3.2v14.54h-3.2l-0.06-2.39C1760.06,449.58,1758.33,450.53,1755.97,450.53z M1756.89,447.56
			c1.3,0,2.37-0.45,3.18-1.34c0.82-0.89,1.22-2.04,1.22-3.44c0-1.4-0.41-2.54-1.22-3.43c-0.82-0.88-1.88-1.32-3.18-1.32
			c-1.29,0-2.34,0.44-3.15,1.32c-0.82,0.88-1.22,2.03-1.22,3.43c0,1.4,0.41,2.55,1.22,3.44
			C1754.55,447.12,1755.6,447.56,1756.89,447.56z"/>
		<path d="M1769.07,450.07v-23.32h3.31v23.32H1769.07z"/>
		<path d="M1781.1,450.53c-0.98,0-1.95-0.12-2.91-0.38c-0.96-0.25-1.72-0.58-2.27-1.01l0.43-2.65c0.65,0.46,1.4,0.82,2.25,1.08
			s1.65,0.39,2.42,0.39c0.94,0,1.67-0.15,2.17-0.46c0.51-0.31,0.76-0.74,0.76-1.29c0-0.37-0.08-0.67-0.24-0.91s-0.47-0.46-0.92-0.66
			c-0.45-0.2-1.1-0.42-1.94-0.65c-1.69-0.5-2.89-1.09-3.6-1.79c-0.71-0.69-1.06-1.6-1.06-2.74c0-1.36,0.51-2.44,1.53-3.22
			c1.02-0.79,2.41-1.18,4.17-1.18c0.84,0,1.7,0.11,2.58,0.33s1.58,0.49,2.12,0.82l-0.46,2.56c-1.32-0.77-2.71-1.15-4.15-1.15
			c-1.73,0-2.59,0.54-2.59,1.61c0,0.5,0.2,0.9,0.59,1.2s1.15,0.61,2.26,0.94c1.84,0.54,3.14,1.16,3.9,1.87s1.14,1.66,1.14,2.85
			c0,1.36-0.56,2.44-1.67,3.24C1784.48,450.13,1782.98,450.53,1781.1,450.53z"/>
	</g>
	<g>
		<path d="M781.94-9.6l8.78-21.88h3.86l8.78,21.88h-3.83l-2.3-6.13h-9.39l-2.3,6.13H781.94z M788.91-18.58h7.28l-3.66-9.73
			L788.91-18.58z"/>
		<path d="M813.09-9.22c-1.61,0-3.01-0.31-4.2-0.94c-1.19-0.62-2.12-1.5-2.78-2.63c-0.66-1.13-0.99-2.47-0.99-4s0.34-2.88,1.01-4.03
			c0.67-1.15,1.6-2.05,2.79-2.71c1.19-0.65,2.57-0.98,4.15-0.98c0.79,0,1.59,0.1,2.4,0.29c0.82,0.19,1.52,0.45,2.12,0.78l-0.43,2.82
			c-0.58-0.29-1.21-0.52-1.91-0.69c-0.7-0.17-1.36-0.26-1.97-0.26c-1.46,0-2.62,0.42-3.48,1.27c-0.86,0.84-1.3,1.99-1.3,3.43
			c0,1.46,0.44,2.61,1.31,3.44s2.08,1.25,3.61,1.25c0.63,0,1.28-0.07,1.93-0.22c0.65-0.14,1.35-0.37,2.1-0.68l0.37,2.73
			c-0.65,0.36-1.39,0.64-2.22,0.83C814.77-9.32,813.93-9.22,813.09-9.22z"/>
		<path d="M828.78-9.13c-1.71,0-3.18-0.31-4.42-0.94c-1.24-0.62-2.19-1.51-2.86-2.66c-0.67-1.15-1.01-2.51-1.01-4.09
			c0-1.54,0.31-2.88,0.94-4.04s1.49-2.07,2.61-2.74s2.38-0.99,3.8-0.99c1.36,0,2.55,0.3,3.57,0.89c1.02,0.6,1.8,1.43,2.36,2.5
			c0.56,1.08,0.83,2.34,0.83,3.8c0,0.46-0.03,0.94-0.09,1.44h-10.74c0.17,1.36,0.71,2.39,1.63,3.08s2.13,1.04,3.67,1.04
			c1.71,0,3.34-0.37,4.89-1.12l0.35,2.59c-0.69,0.38-1.53,0.69-2.52,0.91C830.8-9.25,829.8-9.13,828.78-9.13z M827.71-22.03
			c-1.07,0-1.96,0.34-2.66,1.01c-0.7,0.67-1.14,1.62-1.31,2.85h7.72c0-0.21-0.02-0.4-0.06-0.58c-0.15-1.06-0.55-1.87-1.18-2.43
			C829.59-21.75,828.75-22.03,827.71-22.03z"/>
		<path d="M838.6-9.6v-14.54h3.2l0.03,2.25c0.42-0.84,1.04-1.51,1.84-1.99c0.81-0.48,1.74-0.72,2.79-0.72c1.71,0,3.01,0.53,3.92,1.6
			c0.9,1.07,1.35,2.6,1.35,4.59v8.81h-3.31v-8.21c0-2.57-1-3.86-2.99-3.86c-1.09,0-1.95,0.36-2.58,1.09
			c-0.62,0.73-0.94,1.75-0.94,3.05v7.92H838.6z"/>
		<path d="M862.2-9.13c-1.32,0-2.5-0.33-3.53-0.99s-1.83-1.57-2.42-2.73c-0.59-1.16-0.88-2.49-0.88-3.99c0-1.46,0.31-2.77,0.94-3.93
			c0.62-1.16,1.47-2.09,2.55-2.78s2.26-1.04,3.57-1.04c1.04,0,1.98,0.24,2.84,0.72c0.85,0.48,1.54,1.15,2.06,2.02v-11.06h3.31V-9.6
			h-3.2l-0.06-2.39C866.29-10.08,864.57-9.13,862.2-9.13z M863.13-12.1c1.3,0,2.37-0.45,3.18-1.34c0.82-0.89,1.22-2.04,1.22-3.44
			s-0.41-2.54-1.22-3.43c-0.82-0.88-1.88-1.32-3.18-1.32c-1.29,0-2.34,0.44-3.15,1.32c-0.82,0.88-1.22,2.03-1.22,3.43
			s0.41,2.55,1.22,3.44C860.79-12.55,861.84-12.1,863.13-12.1z"/>
		<path d="M882.67-9.13c-1.71,0-3.18-0.31-4.42-0.94c-1.24-0.62-2.19-1.51-2.86-2.66c-0.67-1.15-1.01-2.51-1.01-4.09
			c0-1.54,0.31-2.88,0.94-4.04s1.49-2.07,2.61-2.74s2.38-0.99,3.8-0.99c1.36,0,2.55,0.3,3.57,0.89c1.02,0.6,1.8,1.43,2.36,2.5
			c0.56,1.08,0.83,2.34,0.83,3.8c0,0.46-0.03,0.94-0.09,1.44h-10.74c0.17,1.36,0.71,2.39,1.63,3.08s2.13,1.04,3.67,1.04
			c1.71,0,3.34-0.37,4.89-1.12l0.35,2.59c-0.69,0.38-1.53,0.69-2.52,0.91C884.69-9.25,883.69-9.13,882.67-9.13z M881.61-22.03
			c-1.07,0-1.96,0.34-2.66,1.01c-0.7,0.67-1.14,1.62-1.31,2.85h7.72c0-0.21-0.02-0.4-0.06-0.58c-0.15-1.06-0.55-1.87-1.18-2.43
			C883.48-21.75,882.65-22.03,881.61-22.03z"/>
		<path d="M892.49-9.6v-14.54h3.17l0.03,2.91c0.38-1,0.94-1.77,1.67-2.32s1.56-0.82,2.5-0.82c0.31,0,0.62,0.03,0.94,0.09
			c0.32,0.06,0.57,0.13,0.76,0.23l-0.32,3.11c-0.56-0.23-1.15-0.35-1.78-0.35c-1.15,0-2.05,0.42-2.69,1.27
			c-0.64,0.84-0.96,2.03-0.96,3.57v6.85H892.49z"/>
	</g>
</g>
</svg>
