<?xml version="1.0" encoding="utf-8"?>
<!-- Generator: Adobe Illustrator 25.4.1, SVG Export Plug-In . SVG Version: 6.00 Build 0)  -->
<svg version="1.1" id="Layer_1" xmlns="http://www.w3.org/2000/svg" xmlns:xlink="http://www.w3.org/1999/xlink" x="0px" y="0px"
	 viewBox="0 0 1920 216" style="enable-background:new 0 0 1920 216;" xml:space="preserve">
<style type="text/css">
	.st0{fill:#CEB3FF;}
	.st1{stroke:#000000;stroke-width:62.1459;stroke-miterlimit:10;}
	.st2{fill:#7AC943;stroke:#7AC943;stroke-width:25.8941;stroke-miterlimit:10;}
	.st3{fill:none;stroke:#FFFFFF;stroke-width:25.8941;stroke-linecap:round;stroke-linejoin:round;stroke-miterlimit:10;}
</style>
<rect class="st0" width="1920" height="215.33"/>
<g>
	<g>
		<g>
			<path class="st1" d="M404.99,197.96c0,7-4.05,12.54-12.14,16.63c-8.09,4.09-19.6,6.13-34.52,6.13c-14.75,0-26.17-1.58-34.26-4.74
				c-8.09-3.16-12.14-7.44-12.14-12.83c0-8.85,4.17-13.28,12.52-13.28c1.94,0,4.8,0.59,8.6,1.77c5.9,1.77,9.65,2.82,11.25,3.16
				c3.46-33.71,5.18-61.74,5.18-84.08c0-36.24-4.72-69.33-14.16-99.25c-3.71,0.51-7.97,1.64-12.77,3.41
				c-4.3,1.52-7.12,2.28-8.47,2.28c-2.7,0-5.02-1.18-6.95-3.54c-1.94-2.36-2.91-5.31-2.91-8.85c0-12.22,12.85-18.33,38.56-18.33
				c17.03,0,30.51,2.36,40.46,7.08c9.44,4.47,14.16,10.37,14.16,17.7c0,6.57-2.66,9.86-7.97,9.86c-1.26,0-4.43-0.8-9.48-2.4
				c-6.57-2.11-12.39-3.71-17.45-4.8c8.77,30.51,13.15,62.8,13.15,96.85c0,21.83-1.98,49.94-5.94,84.33
				c3.29-0.93,8.09-2.7,14.41-5.31c4.63-1.94,8.05-2.91,10.24-2.91c2.95,0,5.46,1.08,7.52,3.22
				C403.95,192.21,404.99,194.84,404.99,197.96z"/>
			<path class="st1" d="M286.49,138.41c0,22-9.65,40.29-28.95,54.87c-16.02,12.05-34.98,18.08-56.9,18.08
				c-10.87,0-23.31-1.98-37.3-5.94c-1.52,8.17-5.69,12.26-12.52,12.26c-5.14,0-8.72-2.15-10.75-6.45
				c-1.94-4.05-2.91-10.79-2.91-20.23c0-19.72,2.66-63.85,7.97-132.38l1.01-14.29c1.26-15.43,2.66-25.37,4.17-29.84
				c2.19-6.32,6.32-9.48,12.39-9.48c7.67,0,11.51,5.1,11.51,15.31c-0.01,1.75-1.48,12.19-4.43,45.42c-3.2,35.6-5.27,73.6-6.2,114
				c14.5,4.47,27.44,6.7,38.82,6.7c16.94,0,30.81-4.68,41.6-14.05c10.37-9.12,15.55-20.43,15.55-33.94
				c0-26.42-18.21-39.63-54.62-39.63c-1.26,0-3.18,0.04-5.75,0.13c-2.57,0.08-4.53,0.13-5.88,0.13c-7.76,0-11.63-3.54-11.63-10.62
				c0-5.14,2.15-8.6,6.45-10.37c2.53-1.09,6.24-1.85,11.13-2.28c5.9-0.59,9.99-1.14,12.26-1.64c7.16-1.77,12.96-5.88,17.38-12.33
				s6.64-14.18,6.64-23.2c0-12.47-5.1-22.15-15.3-29.02c-10.2-6.87-24.78-10.3-43.75-10.3c-12.98,0-26.97,3.12-41.98,9.36
				c-3.63,1.69-7.29,3.37-11,5.06c-4.3,1.77-8.05,2.66-11.25,2.66c-3.29,0-6.01-1.05-8.16-3.16c-2.15-2.11-3.22-4.59-3.22-7.46
				c0-4.63,4.13-9.36,12.39-14.16c19.22-11.21,42.19-16.82,68.91-16.82c24.78,0,44.42,5.61,58.92,16.82
				c14.24,11.13,21.37,25.96,21.37,44.51c0,17.2-6.41,31.69-19.22,43.49c13.57,4.22,24.17,11.55,31.8,22
				C282.67,112.07,286.49,124.33,286.49,138.41z"/>
			<path class="st1" d="M628.42,112.99c0,3.2-1.29,6.13-3.86,8.79c-2.57,2.66-5.42,3.98-8.53,3.98c-2.19,0-5.18-1.14-8.98-3.41
				c-5.06-3.03-8.81-5.01-11.25-5.94c-1.26,11.55-1.9,23.01-1.9,34.39c0,13.32,0.97,25.6,2.91,36.86
				c1.94,11.25,3.32,13.64,3.32,14.65c0,2.86-1.64,5.83-4.08,7.98c-2.45,2.15-5.31,3.22-8.6,3.22c-9.69,0-15.47-12.86-17.32-38.56
				c-13.91,27.23-35.74,40.84-65.49,40.84c-25.54,0-45.9-9.1-61.07-27.31c-15.43-18.54-23.14-43.96-23.14-76.24
				c0-38.6,10.22-68.67,30.66-90.21c20.44-21.54,48.74-32.3,84.9-32.3c18.97,0,35.32,3.08,49.06,9.23
				c12.64,5.56,18.97,11.55,18.97,17.95c0,3.37-1.2,6.34-3.6,8.91c-2.4,2.57-5.08,3.86-8.03,3.86c-1.94,0-4.51-0.84-7.71-2.53
				c-5.73-2.86-8.94-4.47-9.61-4.8c-11.97-4.97-24.82-7.46-38.56-7.46c-28.57,0-50.53,8.28-65.87,24.84
				c-15.34,16.56-23.01,40.48-23.01,71.75c0,25.54,5.31,45.26,15.93,59.17c10.37,13.74,24.82,20.61,43.37,20.61
				c17.28,0,31.14-6.57,41.6-19.72c10.28-12.9,17.91-32.83,22.88-59.8c-7.76-1.52-14.29-2.28-19.6-2.28
				c-6.32,0-13.28,1.08-20.86,3.22c-7.59,2.15-12.14,3.22-13.66,3.22c-2.87,0-5.44-1.28-7.71-3.86c-2.28-2.57-3.41-5.54-3.41-8.91
				c0-5.48,4.43-9.99,13.28-13.53c9.44-3.71,22.29-5.56,38.56-5.56c20.06,0,37.13,3.25,51.21,9.74
				C622.02,99.68,628.42,106.08,628.42,112.99z"/>
		</g>
		<g>
			<path class="st2" d="M286.49,138.41c0,22-9.65,40.29-28.95,54.87c-16.02,12.05-34.98,18.08-56.9,18.08
				c-10.87,0-23.31-1.98-37.3-5.94c-1.52,8.17-5.69,12.26-12.52,12.26c-5.14,0-8.72-2.15-10.75-6.45
				c-1.94-4.05-2.91-10.79-2.91-20.23c0-19.72,2.66-63.85,7.97-132.38l1.01-14.29c1.26-15.43,2.66-25.37,4.17-29.84
				c2.19-6.32,6.32-9.48,12.39-9.48c7.67,0,11.51,5.1,11.51,15.31c-0.01,1.75-1.48,12.19-4.43,45.42c-3.2,35.6-5.27,73.6-6.2,114
				c14.5,4.47,27.44,6.7,38.82,6.7c16.94,0,30.81-4.68,41.6-14.05c10.37-9.12,15.55-20.43,15.55-33.94
				c0-26.42-18.21-39.63-54.62-39.63c-1.26,0-3.18,0.04-5.75,0.13c-2.57,0.08-4.53,0.13-5.88,0.13c-7.76,0-11.63-3.54-11.63-10.62
				c0-5.14,2.15-8.6,6.45-10.37c2.53-1.09,6.24-1.85,11.13-2.28c5.9-0.59,9.99-1.14,12.26-1.64c7.16-1.77,12.96-5.88,17.38-12.33
				s6.64-14.18,6.64-23.2c0-12.47-5.1-22.15-15.3-29.02c-10.2-6.87-24.78-10.3-43.75-10.3c-12.98,0-26.97,3.12-41.98,9.36
				c-3.63,1.69-7.29,3.37-11,5.06c-4.3,1.77-8.05,2.66-11.25,2.66c-3.29,0-6.01-1.05-8.16-3.16c-2.15-2.11-3.22-4.59-3.22-7.46
				c0-4.63,4.13-9.36,12.39-14.16c19.22-11.21,42.19-16.82,68.91-16.82c24.78,0,44.42,5.61,58.92,16.82
				c14.24,11.13,21.37,25.96,21.37,44.51c0,17.2-6.41,31.69-19.22,43.49c13.57,4.22,24.17,11.55,31.8,22
				C282.67,112.07,286.49,124.33,286.49,138.41z"/>
			<path class="st2" d="M404.99,197.96c0,7-4.05,12.54-12.14,16.63c-8.09,4.09-19.6,6.13-34.52,6.13c-14.75,0-26.17-1.58-34.26-4.74
				c-8.09-3.16-12.14-7.44-12.14-12.83c0-8.85,4.17-13.28,12.52-13.28c1.94,0,4.8,0.59,8.6,1.77c5.9,1.77,9.65,2.82,11.25,3.16
				c3.46-33.71,5.18-61.74,5.18-84.08c0-36.24-4.72-69.33-14.16-99.25c-3.71,0.51-7.97,1.64-12.77,3.41
				c-4.3,1.52-7.12,2.28-8.47,2.28c-2.7,0-5.02-1.18-6.95-3.54c-1.94-2.36-2.91-5.31-2.91-8.85c0-12.22,12.85-18.33,38.56-18.33
				c17.03,0,30.51,2.36,40.46,7.08c9.44,4.47,14.16,10.37,14.16,17.7c0,6.57-2.66,9.86-7.97,9.86c-1.26,0-4.43-0.8-9.48-2.4
				c-6.57-2.11-12.39-3.71-17.45-4.8c8.77,30.51,13.15,62.8,13.15,96.85c0,21.83-1.98,49.94-5.94,84.33
				c3.29-0.93,8.09-2.7,14.41-5.31c4.63-1.94,8.05-2.91,10.24-2.91c2.95,0,5.46,1.08,7.52,3.22
				C403.95,192.21,404.99,194.84,404.99,197.96z"/>
			<path class="st2" d="M628.42,112.99c0,3.2-1.29,6.13-3.86,8.79c-2.57,2.66-5.42,3.98-8.53,3.98c-2.19,0-5.18-1.14-8.98-3.41
				c-5.06-3.03-8.81-5.01-11.25-5.94c-1.26,11.55-1.9,23.01-1.9,34.39c0,13.32,0.97,25.6,2.91,36.86
				c1.94,11.25,3.32,13.64,3.32,14.65c0,2.86-1.64,5.83-4.08,7.98c-2.45,2.15-5.31,3.22-8.6,3.22c-9.69,0-15.47-12.86-17.32-38.56
				c-13.91,27.23-35.74,40.84-65.49,40.84c-25.54,0-45.9-9.1-61.07-27.31c-15.43-18.54-23.14-43.96-23.14-76.24
				c0-38.6,10.22-68.67,30.66-90.21c20.44-21.54,48.74-32.3,84.9-32.3c18.97,0,35.32,3.08,49.06,9.23
				c12.64,5.56,18.97,11.55,18.97,17.95c0,3.37-1.2,6.34-3.6,8.91c-2.4,2.57-5.08,3.86-8.03,3.86c-1.94,0-4.51-0.84-7.71-2.53
				c-5.73-2.86-8.94-4.47-9.61-4.8c-11.97-4.97-24.82-7.46-38.56-7.46c-28.57,0-50.53,8.28-65.87,24.84
				c-15.34,16.56-23.01,40.48-23.01,71.75c0,25.54,5.31,45.26,15.93,59.17c10.37,13.74,24.82,20.61,43.37,20.61
				c17.28,0,31.14-6.57,41.6-19.72c10.28-12.9,17.91-32.83,22.88-59.8c-7.76-1.52-14.29-2.28-19.6-2.28
				c-6.32,0-13.28,1.08-20.86,3.22c-7.59,2.15-12.14,3.22-13.66,3.22c-2.87,0-5.44-1.28-7.71-3.86c-2.28-2.57-3.41-5.54-3.41-8.91
				c0-5.48,4.43-9.99,13.28-13.53c9.44-3.71,22.29-5.56,38.56-5.56c20.06,0,37.13,3.25,51.21,9.74
				C622.02,99.68,628.42,106.08,628.42,112.99z"/>
		</g>
		<g>
			<path class="st3" d="M262.47,36.12c0,17.2-6.41,31.69-19.22,43.49c13.57,4.22,24.17,11.55,31.8,22
				c7.63,10.45,11.44,22.72,11.44,36.79c0,22-9.65,40.29-28.95,54.87c-16.02,12.05-34.98,18.08-56.9,18.08
				c-10.87,0-23.31-1.98-37.3-5.94c-1.52,8.17-5.69,12.26-12.52,12.26c-5.14,0-8.72-2.15-10.75-6.45"/>
			<path class="st3" d="M375.65,110.72c0,21.83-1.98,49.94-5.94,84.33c3.29-0.93,8.09-2.7,14.41-5.31
				c4.63-1.94,8.05-2.91,10.24-2.91c2.95,0,5.46,1.08,7.52,3.22c2.06,2.15,3.1,4.78,3.1,7.9c0,7-4.05,12.54-12.14,16.63
				c-8.09,4.09-19.6,6.13-34.52,6.13c-14.75,0-26.17-1.58-34.26-4.74"/>
			<path class="st3" d="M628.42,112.99c0,3.2-1.29,6.13-3.86,8.79c-2.57,2.66-5.42,3.98-8.53,3.98c-2.19,0-5.18-1.14-8.98-3.41
				c-5.06-3.03-8.81-5.01-11.25-5.94c-1.26,11.55-1.9,23.01-1.9,34.39c0,13.32,0.97,25.6,2.91,36.86
				c1.94,11.25,3.32,13.64,3.32,14.65c0,2.86-1.64,5.83-4.08,7.98c-2.45,2.15-5.31,3.22-8.6,3.22c-9.69,0-15.47-12.86-17.32-38.56
				c-13.91,27.23-35.74,40.84-65.49,40.84"/>
		</g>
	</g>
	<g>
		<g>
			<path class="st1" d="M979.71-8.89c0,3.03-1.18,5.82-3.54,8.34c-2.36,2.53-4.97,3.79-7.84,3.79c-1.52,0-3.12-0.25-4.8-0.76
				c-1.69-0.51-3.03-0.97-4.05-1.39c-0.07,0-0.86-0.32-2.34-0.96c-0.33-0.14-0.71,0.09-0.73,0.45
				c-5.51,94.95-18.51,164.28-39.03,207.99c-5.4,11.38-11.8,17.07-19.22,17.07c-20.71,0-36.17-40.42-46.37-121.25
				c-0.07-0.55-0.84-0.63-1.02-0.1c-13.07,38.72-23.87,66.02-32.39,81.91c-9.78,18.37-19.43,27.56-28.95,27.56
				c-6.57,0-12.73-3.96-18.46-11.88c-5.48-7.59-11.42-20.02-17.83-37.3c-12.73-34.56-19.09-86.44-19.09-155.64V0.42
				c0-0.31-0.27-0.56-0.58-0.52c-1.61,0.19-3.65,0.55-6.12,1.07c-2.36,0.51-4.05,0.76-5.06,0.76c-8.43,0-12.64-4.34-12.64-13.02
				c0-10.2,13.49-15.3,40.46-15.3c12.56,0,22.63,1.58,30.22,4.74s11.38,7.1,11.38,11.82c0,9.02-4.05,13.53-12.14,13.53
				c-2.02,0-5.1-0.59-9.23-1.77c-4.25-1.26-7.73-2.04-10.44-2.34c-0.31-0.03-0.57,0.21-0.57,0.52l-0.5,31.03
				c0,62.4,10.32,113.31,30.96,152.73c0.18,0.35,0.67,0.39,0.9,0.07c12.86-18.18,27.44-53.94,43.76-107.28
				c2.95-9.61,5.9-21.45,8.85-35.53c2.44-11.63,4.38-19.05,5.82-22.25c2.28-5.14,5.6-7.71,9.99-7.71c6.15,0,10.16,2.91,12.01,8.72
				c1.26,4.13,1.9,12.73,1.9,25.79c0,2.11-0.04,4.61-0.13,7.52c-0.08,2.91-0.13,4.7-0.13,5.37c0,49.73,7.9,93.3,23.69,130.73
				c0.56,1.32,2.44,1.33,3.02,0.01c17.59-40.25,27.45-108.88,32.06-191.19c0.02-0.33-0.25-0.59-0.58-0.56
				c-1.3,0.15-3.25,0.51-5.84,1.08c-2.53,0.59-4.51,0.89-5.94,0.89c-8.26,0-12.39-4.3-12.39-12.9c0-9.86,11.29-14.79,33.88-14.79
				c11.46,0,20.99,2.02,28.57,6.07C976.21-18.5,979.71-14.03,979.71-8.89z"/>
			<path class="st1" d="M1193.67,106.55c0,35.65-9.67,63.47-29.02,83.45c-19.35,19.98-45.92,29.97-79.72,29.97
				c-29.92,0-54.37-10.28-73.33-30.85c-18.63-20.14-27.94-47.16-27.94-81.05c0-35.74,8.18-64.65,24.53-86.74
				c17.78-23.77,43.53-35.65,77.25-35.65c33.88,0,60.39,10.58,79.53,31.74C1184.1,38.57,1193.67,68.28,1193.67,106.55z
				 M1166.99,107.3c0-31.1-7.02-54.89-21.05-71.37c-14.04-16.48-34.03-24.72-60-24.72c-24.61,0-43.33,8.05-56.14,24.15
				c-12.81,16.1-19.22,39.57-19.22,70.42c0,27.06,7.12,48.7,21.37,64.93c14.24,16.23,32.75,24.34,55.5,24.34
				c24.28,0,43.54-7.67,57.78-23.01C1159.74,156.28,1166.99,134.7,1166.99,107.3z"/>
			<path class="st1" d="M1414.05,190.29c-0.65-7.31-0.97-18.49-0.97-33.55c0-56.98,4.13-104.01,12.39-141.1
				c2.87-12.64,5.78-21.49,8.74-26.55c3.21-5.39,7.38-8.09,12.53-8.09c5.49,0,11.77,3.79,18.87,11.38
				c14.75,15.76,26.17,29.37,34.27,40.83c11.69,16.61,21.55,34.9,29.6,54.88c0.85,2.11,3.82,2.14,4.72,0.06
				c14.87-34.35,30.55-62.23,47.06-83.64c14.49-20.06,26.04-30.09,34.64-30.09c3.6,0,6.35,1.6,8.23,4.8
				c1.55,2.61,3.19,7.67,4.91,15.17c6.4,27.06,9.61,70.05,9.61,128.96c0,32.45-1.48,58.96-4.43,79.53
				c-1.77,12.05-6.45,18.08-14.03,18.08c-8.43,0-12.64-4.64-12.64-13.91c0-0.42,0.51-5.1,1.52-14.03
				c1.18-10.54,2.15-21.2,2.91-31.99c1.01-16.01,1.52-32.79,1.52-50.32c0-28.28-2.28-58.92-6.85-91.92
				c-0.29-2.12-2.93-2.98-4.4-1.41c-18.89,20.22-35.63,50.44-50.2,90.68c-3.1,8.89-6.21,17.73-9.31,26.54
				c-0.03,0.09-0.07,0.19-0.11,0.28c-3.03,6.48-7.22,9.72-12.58,9.72c-5.14,0-8.98-2.57-11.51-7.71c-0.93-1.85-3.37-9.4-7.33-22.63
				c-9.99-33.55-28.48-65.29-55.45-95.24c-1.35-1.5-3.83-0.95-4.38,0.99c-8.49,29.91-12.74,69.88-12.74,119.91
				c0,7.59,0.32,16.94,0.95,28.07c0.63,11.13,0.95,18.5,0.95,22.13c0,6.32-5.55,14.08-12.3,19.98l0,0
				c-6.41,5.56-15.23,8.34-26.46,8.34c-14.52,0-25.32-2.53-32.41-7.59c-2.11-1.52-4.72-4.09-7.83-7.71
				c-5.05-5.82-7.96-9.1-8.72-9.86c-26.58-28.12-44.89-44.66-54.94-49.63c-0.09-0.04-0.17-0.08-0.27-0.11
				c-4.33-1.58-8.6-3.23-12.81-4.94c-4.25-1.73-6.38-4.91-6.38-9.55c0-7.92,6.7-12.39,20.1-13.4c14.41-1.18,26.13-6.97,35.15-17.39
				c9.02-10.41,13.53-23.2,13.53-38.37c0-34.31-21.83-51.46-65.49-51.46l0,0c-1.19,0-2.22,0.81-2.5,1.96
				c-10.56,43.95-15.83,91.17-15.83,141.67c0,8.85,0.25,18.17,0.76,27.94c0.51,9.78,0.76,15.09,0.76,15.93
				c0,11.72-4.05,17.57-12.14,17.57c-6.57,0-10.87-4-12.9-12.01c-1.6-6.41-2.4-19.51-2.4-39.32c0-58.95,4.94-108.09,14.83-147.43
				c0.45-1.79-1.1-3.44-2.92-3.14c-28.65,4.79-44.54,7.19-47.69,7.19c-12.05,0-18.08-4.34-18.08-13.02c0-5.39,2.23-9.1,6.7-11.13
				c2.61-1.09,5.94-1.73,9.99-1.9c3.43-0.17,6.89-0.29,10.4-0.38c0.07,0,0.12,0,0.19-0.01c2.76-0.28,13.61-1.96,32.53-5.05
				c14.24-2.36,26.51-3.54,36.79-3.54c62.63,0,93.94,24.87,93.94,74.6c0,15.76-4.34,30.33-13.02,43.68
				c-8.01,12.33-18.96,22.19-32.85,29.6c-1.63,0.87-1.85,3.12-0.4,4.26c11.13,8.72,22.08,18.73,32.86,30.05
				c13.99,14.67,21.16,22.13,21.49,22.38c4.3,3.79,11.38,5.69,21.24,5.69c4.72,0,7.71-0.68,8.98-2.02
				C1412.97,191.44,1413.51,190.87,1414.05,190.29L1414.05,190.29z"/>
			<path class="st1" d="M1819.12,1.73c0,2.45-0.46,6.41-1.39,11.88c-0.93,5.48-1.39,9.61-1.39,12.39v3.92
				c0,9.19-0.59,15.3-1.77,18.33c-1.69,4.3-5.27,6.45-10.75,6.45c-6.07,0-10.16-3.94-12.26-11.81c-1.1-3.81-1.73-10.24-1.9-19.3
				c-11.55-8.17-23.64-12.26-36.29-12.26c-16.18,0-29.5,5.23-39.95,15.7c-10.45,10.47-15.68,23.84-15.68,40.13
				c0,13.93,3.33,24.01,9.99,30.26c4.63,4.3,14.75,9.16,30.34,14.56c14.08,4.8,23.69,8.43,28.83,10.87
				c8.77,4.13,15.47,8.98,20.1,14.54c6.91,8.26,10.37,19.22,10.37,32.87c0,14.16-5.35,25.37-16.06,33.63
				c-10.71,8.26-25.37,12.39-44,12.39c-13.99,0-25.2-3.46-33.63-10.37l-0.25,25.67c-0.08,8.51-4.22,12.77-12.39,12.77
				c-8.51,0-12.77-5.65-12.77-16.94v-18.33c0-24.36,0.72-40.37,2.15-48.05c1.94-10.28,6.15-15.43,12.64-15.43
				c5.14,0,8.6,2.07,10.37,6.21c1.01,2.54,1.9,6.13,2.66,10.78c0.84,6.17,1.52,10.23,2.02,12.17c2.7,11.07,11.21,16.61,25.54,16.61
				c24.86,0,37.3-7.43,37.3-22.31c0-7.35-2.66-13.31-7.97-17.87c-4.38-3.8-12.14-7.73-23.26-11.79l-22.88-8.22
				c-16.77-6.15-28.53-13.66-35.28-22.51c-7-9.19-10.49-22.25-10.49-39.2c0-24.61,7.71-44.61,23.14-59.99
				c15.43-15.38,35.32-23.07,59.68-23.07c13.99,0,27.23,3.88,39.7,11.63c2.28-8.85,6.74-13.28,13.4-13.28
				C1815.07-15.21,1819.12-9.56,1819.12,1.73z"/>
		</g>
		<g>
			<path class="st2" d="M979.71-8.89c0,3.03-1.18,5.82-3.54,8.34c-2.36,2.53-4.97,3.79-7.84,3.79c-1.52,0-3.12-0.25-4.8-0.76
				c-1.69-0.51-3.03-0.97-4.05-1.39c-0.08,0-1.1-0.42-3.03-1.26c-5.48,95.33-18.5,164.92-39.07,208.75
				c-5.4,11.38-11.8,17.07-19.22,17.07c-20.91,0-36.46-41.17-46.65-123.53c-13.4,39.87-24.45,67.9-33.13,84.08
				c-9.78,18.37-19.43,27.56-28.95,27.56c-6.57,0-12.73-3.96-18.46-11.88c-5.48-7.59-11.42-20.02-17.83-37.3
				c-12.73-34.56-19.09-86.44-19.09-155.64v-9.1c-1.69,0.17-3.92,0.55-6.7,1.14c-2.36,0.51-4.05,0.76-5.06,0.76
				c-8.43,0-12.64-4.34-12.64-13.02c0-10.2,13.49-15.3,40.46-15.3c12.56,0,22.63,1.58,30.22,4.74s11.38,7.1,11.38,11.82
				c0,9.02-4.05,13.53-12.14,13.53c-2.02,0-5.1-0.59-9.23-1.77c-4.55-1.35-8.22-2.15-11-2.4l-0.51,31.61
				c0,62.8,10.45,113.96,31.36,153.49c12.98-17.95,27.73-53.94,44.25-107.98c2.95-9.61,5.9-21.45,8.85-35.53
				c2.44-11.63,4.38-19.05,5.82-22.25c2.28-5.14,5.6-7.71,9.99-7.71c6.15,0,10.16,2.91,12.01,8.72c1.26,4.13,1.9,12.73,1.9,25.79
				c0,2.11-0.04,4.61-0.13,7.52c-0.08,2.91-0.13,4.7-0.13,5.37c0,51.25,8.39,95.96,25.16,134.15
				c17.7-45.18,28.91-110.25,33.63-195.22c-1.26,0.08-3.41,0.46-6.45,1.14c-2.53,0.59-4.51,0.89-5.94,0.89
				c-8.26,0-12.39-4.3-12.39-12.9c0-9.86,11.29-14.79,33.88-14.79c11.46,0,20.99,2.02,28.57,6.07
				C976.21-18.5,979.71-14.03,979.71-8.89z"/>
			<path class="st2" d="M1193.67,106.55c0,35.65-9.67,63.47-29.02,83.45c-19.35,19.98-45.92,29.97-79.72,29.97
				c-29.92,0-54.37-10.28-73.33-30.85c-18.63-20.14-27.94-47.16-27.94-81.05c0-35.74,8.18-64.65,24.53-86.74
				c17.78-23.77,43.53-35.65,77.25-35.65c33.88,0,60.39,10.58,79.53,31.74C1184.1,38.57,1193.67,68.28,1193.67,106.55z
				 M1166.99,107.3c0-31.1-7.02-54.89-21.05-71.37c-14.04-16.48-34.03-24.72-60-24.72c-24.61,0-43.33,8.05-56.14,24.15
				c-12.81,16.1-19.22,39.57-19.22,70.42c0,27.06,7.12,48.7,21.37,64.93c14.24,16.23,32.75,24.34,55.5,24.34
				c24.28,0,43.54-7.67,57.78-23.01C1159.74,156.28,1166.99,134.7,1166.99,107.3z"/>
			<path class="st2" d="M1414.05,190.29c-0.65-7.31-0.97-18.49-0.97-33.55c0-56.98,4.13-104.01,12.39-141.1
				c2.87-12.64,5.78-21.49,8.74-26.55c3.21-5.39,7.38-8.09,12.53-8.09c5.49,0,11.77,3.79,18.87,11.38
				c14.75,15.76,26.17,29.37,34.27,40.83c12.81,18.2,23.43,38.43,31.86,60.68c15.59-37,32.1-66.79,49.51-89.38
				c14.49-20.06,26.04-30.09,34.64-30.09c3.6,0,6.35,1.6,8.23,4.8c1.55,2.61,3.19,7.67,4.91,15.17c6.4,27.06,9.61,70.05,9.61,128.96
				c0,32.45-1.48,58.96-4.43,79.53c-1.77,12.05-6.45,18.08-14.03,18.08c-8.43,0-12.64-4.64-12.64-13.91c0-0.42,0.51-5.1,1.52-14.03
				c1.18-10.54,2.15-21.2,2.91-31.99c1.01-16.01,1.52-32.79,1.52-50.32c0-29.75-2.53-62.12-7.59-97.1
				c-20.4,20.15-38.35,51.63-53.86,94.45c-3.12,8.94-6.24,17.83-9.36,26.68c-3.03,6.57-7.25,9.86-12.64,9.86
				c-5.14,0-8.98-2.57-11.51-7.71c-0.93-1.85-3.37-9.4-7.33-22.63c-10.37-34.81-29.88-67.68-58.54-98.62
				c-9.36,30.34-14.03,71.77-14.03,124.29c0,7.59,0.32,16.94,0.95,28.07c0.63,11.13,0.95,18.5,0.95,22.13
				c0,6.32-5.55,14.08-12.3,19.98l0,0c-6.41,5.56-15.23,8.34-26.46,8.34c-14.52,0-25.32-2.53-32.41-7.59
				c-2.11-1.52-4.72-4.09-7.83-7.71c-5.05-5.82-7.96-9.1-8.72-9.86c-26.69-28.24-45.05-44.8-55.07-49.69
				c-4.38-1.6-8.7-3.27-12.95-4.99c-4.25-1.73-6.38-4.91-6.38-9.55c0-7.92,6.7-12.39,20.1-13.4c14.41-1.18,26.13-6.97,35.15-17.39
				c9.02-10.41,13.53-23.2,13.53-38.37c0-34.31-21.83-51.46-65.49-51.46h-2.02c-10.87,44.51-16.31,92.38-16.31,143.63
				c0,8.85,0.25,18.17,0.76,27.94c0.51,9.78,0.76,15.09,0.76,15.93c0,11.72-4.05,17.57-12.14,17.57c-6.57,0-10.87-4-12.9-12.01
				c-1.6-6.41-2.4-19.51-2.4-39.32c0-60.86,5.27-111.26,15.8-151.22c-31.1,5.23-48.3,7.84-51.59,7.84
				c-12.05,0-18.08-4.34-18.08-13.02c0-5.39,2.23-9.1,6.7-11.13c2.61-1.09,5.94-1.73,9.99-1.9c3.46-0.17,6.95-0.29,10.49-0.38
				c2.61-0.25,13.49-1.94,32.62-5.06c14.24-2.36,26.51-3.54,36.79-3.54c62.63,0,93.94,24.87,93.94,74.6
				c0,15.76-4.34,30.33-13.02,43.68c-8.68,13.36-20.82,23.83-36.41,31.42c12.22,9.27,24.23,20.1,36.03,32.49
				c13.99,14.67,21.16,22.13,21.49,22.38c4.3,3.79,11.38,5.69,21.24,5.69c4.72,0,7.71-0.68,8.98-2.02
				C1412.97,191.44,1413.51,190.87,1414.05,190.29L1414.05,190.29z"/>
			<path class="st2" d="M1819.12,1.73c0,2.45-0.46,6.41-1.39,11.88c-0.93,5.48-1.39,9.61-1.39,12.39v3.92
				c0,9.19-0.59,15.3-1.77,18.33c-1.69,4.3-5.27,6.45-10.75,6.45c-6.07,0-10.16-3.94-12.26-11.81c-1.1-3.81-1.73-10.24-1.9-19.3
				c-11.55-8.17-23.64-12.26-36.29-12.26c-16.18,0-29.5,5.23-39.95,15.7c-10.45,10.47-15.68,23.84-15.68,40.13
				c0,13.93,3.33,24.01,9.99,30.26c4.63,4.3,14.75,9.16,30.34,14.56c14.08,4.8,23.69,8.43,28.83,10.87
				c8.77,4.13,15.47,8.98,20.1,14.54c6.91,8.26,10.37,19.22,10.37,32.87c0,14.16-5.35,25.37-16.06,33.63
				c-10.71,8.26-25.37,12.39-44,12.39c-13.99,0-25.2-3.46-33.63-10.37l-0.25,25.67c-0.08,8.51-4.22,12.77-12.39,12.77
				c-8.51,0-12.77-5.65-12.77-16.94v-18.33c0-24.36,0.72-40.37,2.15-48.05c1.94-10.28,6.15-15.43,12.64-15.43
				c5.14,0,8.6,2.07,10.37,6.21c1.01,2.54,1.9,6.13,2.66,10.78c0.84,6.17,1.52,10.23,2.02,12.17c2.7,11.07,11.21,16.61,25.54,16.61
				c24.86,0,37.3-7.43,37.3-22.31c0-7.35-2.66-13.31-7.97-17.87c-4.38-3.8-12.14-7.73-23.26-11.79l-22.88-8.22
				c-16.77-6.15-28.53-13.66-35.28-22.51c-7-9.19-10.49-22.25-10.49-39.2c0-24.61,7.71-44.61,23.14-59.99
				c15.43-15.38,35.32-23.07,59.68-23.07c13.99,0,27.23,3.88,39.7,11.63c2.28-8.85,6.74-13.28,13.4-13.28
				C1815.07-15.21,1819.12-9.56,1819.12,1.73z"/>
		</g>
		<g>
			<path class="st3" d="M979.71-8.89c0,3.03-1.18,5.82-3.54,8.34c-2.36,2.53-4.97,3.79-7.84,3.79c-1.52,0-3.12-0.25-4.8-0.76
				c-1.69-0.51-3.03-0.97-4.05-1.39c-0.08,0-1.1-0.42-3.03-1.26c-5.48,95.33-18.5,164.92-39.07,208.75
				c-5.4,11.38-11.8,17.07-19.22,17.07c-20.91,0-36.46-41.17-46.65-123.53c-13.4,39.87-24.45,67.9-33.13,84.08
				c-9.78,18.37-19.43,27.56-28.95,27.56c-6.57,0-12.73-3.96-18.46-11.88"/>
			<path class="st3" d="M1164.97,17.41c19.13,21.16,28.7,50.87,28.7,89.14c0,35.65-9.67,63.47-29.02,83.45
				c-19.35,19.98-45.92,29.97-79.72,29.97c-29.92,0-54.37-10.28-73.33-30.85 M1085.94,11.21c-24.61,0-43.33,8.05-56.14,24.15
				c-12.81,16.1-19.22,39.57-19.22,70.42"/>
			<path class="st3" d="M1347.19,59.89c0-34.31-21.83-51.46-65.49-51.46h-2.02c-10.87,44.51-16.31,92.38-16.31,143.63
				c0,8.85,0.25,18.17,0.76,27.94c0.51,9.78,0.76,15.09,0.76,15.93c0,11.72-4.05,17.57-12.14,17.57"/>
			<path class="st3" d="M1605.9,13.62c-20.4,20.15-38.35,51.63-53.86,94.45c-3.12,8.94-6.24,17.83-9.36,26.68
				c-3.03,6.57-7.25,9.86-12.64,9.86c-5.14,0-8.98-2.57-11.51-7.71 M1638.65,123.36c0,32.45-1.48,58.96-4.43,79.53
				c-1.77,12.05-6.45,18.08-14.03,18.08c-8.43,0-12.64-4.64-12.64-13.91"/>
			<path class="st3" d="M1452.66,15.64c-9.36,30.34-14.03,71.77-14.03,124.29c0,7.59,0.32,16.94,0.95,28.07
				c0.63,11.13,0.95,18.5,0.95,22.13c0,6.32-5.55,14.08-12.3,19.98l0,0c-6.41,5.56-15.23,8.34-26.46,8.34
				c-14.52,0-25.32-2.53-32.41-7.59"/>
			<path class="st3" d="M1797.37,170.27c0,14.16-5.35,25.37-16.06,33.63c-10.71,8.26-25.37,12.39-44,12.39
				c-13.99,0-25.2-3.46-33.63-10.37l-0.25,25.67c-0.08,8.51-4.22,12.77-12.39,12.77 M1753.37,11.34c-16.18,0-29.5,5.23-39.95,15.7
				c-10.45,10.47-15.68,23.84-15.68,40.13c0,13.93,3.33,24.01,9.99,30.26c4.63,4.3,14.75,9.16,30.34,14.56 M1817.73,13.62
				c-0.93,5.48-1.39,9.61-1.39,12.39v3.92c0,9.19-0.59,15.3-1.77,18.33c-1.69,4.3-5.27,6.45-10.75,6.45
				c-6.07,0-10.16-3.94-12.26-11.81"/>
		</g>
	</g>
</g>
</svg>
