<?xml version="1.0" encoding="utf-8"?>
<!-- Generator: Adobe Illustrator 25.4.1, SVG Export Plug-In . SVG Version: 6.00 Build 0)  -->
<svg version="1.1" id="Layer_1" xmlns="http://www.w3.org/2000/svg" xmlns:xlink="http://www.w3.org/1999/xlink" x="0px" y="0px"
	 viewBox="0 0 892.6 703" style="enable-background:new 0 0 892.6 703;" xml:space="preserve">
<style type="text/css">
	.st0{fill:none;stroke:#414042;stroke-width:2;stroke-miterlimit:10;}
</style>
<g id="Layer_4">
	<rect x="-47.3" y="-28.7" width="986.8" height="764"/>
	<polyline class="st0" points="0,159.2 168.7,159.2 168.7,173.6 139.9,173.6 139.9,231.2 125.5,231.2 125.5,173.6 0,173.6 	"/>
	<polygon class="st0" points="226.3,231.2 226.3,201.2 197.5,201.2 197.5,231.2 183.1,231.2 183.1,159.2 197.5,159.2 197.5,186.9
		226.3,186.9 226.3,159.2 240.7,159.2 240.7,231.2 	"/>
	<polyline class="st0" points="665.6,231.2 254.8,231.2 254.8,159.2 665.6,159.2 	"/>
	<polyline class="st0" points="665.6,202.4 269.1,202.4 269.1,216.8 665.6,216.8 	"/>
	<polyline class="st0" points="665.6,173.6 269.1,173.6 269.1,188 665.6,188 	"/>
	<path class="st0" d="M139.9,483.3c0-4-3.2-7.2-7.2-7.2s-7.2,3.2-7.2,7.2s3.2,7.2,7.2,7.2"/>
	<path class="st0" d="M125.5,512.1c0,4,3.2,7.2,7.2,7.2c4,0,7.2-3.2,7.2-7.2c0-4-3.2-7.2-7.2-7.2"/>
	<path class="st0" d="M132.7,504.9c-11.9,0-21.6-9.7-21.6-21.6c0-11.9,9.7-21.6,21.6-21.6c11.9,0,21.6,9.7,21.6,21.6c0,0,0,0,0,0"/>
	<path class="st0" d="M132.7,490.5c11.9,0,21.6,9.7,21.6,21.6c0,11.9-9.7,21.6-21.6,21.6s-21.6-9.7-21.6-21.6l0,0"/>
	<polygon class="st0" points="235.2,461.7 211.9,498.2 211.9,533.7 197.5,533.7 197.5,498.2 174.2,461.7 191.3,461.7 204.7,482.7
		218.2,461.7 	"/>
	<polygon class="st0" points="291.3,461.7 269.5,461.7 269.5,533.7 283.9,533.7 283.9,482.9 284.2,482.9 298.3,533.7 312.7,533.7
		326.9,482.9 327.1,482.9 327.1,533.7 341.5,533.7 341.5,461.7 319.8,461.7 317.8,461.7 306.1,504 305,504 293.2,461.7 	"/>
	<path class="st0" d="M377.5,461.7c11.9,0.3,21.4,10.1,21.1,22.1c-0.2,11.6-9.6,20.9-21.1,21.1h-7.2v28.8h-14.4v-72L377.5,461.7
		L377.5,461.7z"/>
	<path class="st0" d="M377.5,490.5c4,0,7.2-3.2,7.2-7.2c0-4-3.2-7.2-7.2-7.2h-7.2v14.4H377.5z"/>
	<polygon class="st0" points="456.8,533.7 456.8,503.7 428,503.7 428,533.7 413.6,533.7 413.6,461.7 428,461.7 428,489.3
		456.8,489.3 456.8,461.7 471.2,461.7 471.2,533.7 	"/>
	<line class="st0" x1="442.4" y1="447.3" x2="442.4" y2="476.1"/>
	<line class="st0" x1="442.4" y1="548.1" x2="442.4" y2="519.3"/>

		<ellipse transform="matrix(8.248045e-02 -0.9966 0.9966 8.248045e-02 -17.3984 976.5021)" class="st0" cx="521.6" cy="497.7" rx="36" ry="36"/>

		<ellipse transform="matrix(0.7071 -0.7071 0.7071 0.7071 -199.1452 514.6211)" class="st0" cx="521.6" cy="497.7" rx="21.6" ry="21.6"/>
	<circle class="st0" cx="521.6" cy="497.7" r="7.2"/>
	<path class="st0" d="M240.7,506.4v56.1h-72.1l0.1-15.1c-19.5,19.9-51.4,20.3-71.3,0.8c-13.4-13.1-18.4-32.5-13.1-50.4
		c-8-26.7,7.2-54.8,33.9-62.7c4.7-1.4,9.5-2.1,14.4-2.1h244.8c2.4,0,4.8,0.2,7.2,0.5v-0.5H500v3.7c6.9-2.5,14.2-3.7,21.6-3.7
		c7.4,0,14.7,1.2,21.6,3.7v-3.7h115.2"/>
	<polygon class="st0" points="586.4,533.7 586.4,487.6 586.7,487.6 613.3,533.7 629.5,533.7 629.6,461.7 615.2,461.7 615.2,461.7
		615.2,507.8 614.9,507.8 588.2,461.7 572,461.7 572,533.7 586.4,533.7 	"/>
	<path class="st0" d="M644,447.3h-43.2v7.5l-4.3-7.5h-38.9v15.1c-19.5-19.9-51.4-20.1-71.3-0.6c-0.2,0.2-0.5,0.5-0.7,0.7v-15.2
		h-86.5v7.2c-6.2-4.7-13.8-7.2-21.6-7.2h-70.7l-1.4,4.9l-1.4-4.9h-42.7"/>
	<polygon class="st0" points="649.5,461.7 666.6,461.7 680,482.7 693.5,461.7 710.5,461.7 687.2,498.2 687.2,533.7 672.8,533.7
		672.8,498.2 	"/>
	<path class="st0" d="M261.5,447.3h-51.2l-5.6,8.7l-5.6-8.7H148l3.3,5.1l0,0c-17-10.2-39.2-4.7-49.4,12.4c-6,10-6.8,22.3-2.1,33
		c-7.9,18.2,0.4,39.4,18.6,47.4s39.4-0.4,47.4-18.6c4-9.2,4-19.6,0-28.8c2-4.6,3-9.5,3-14.5c0-1.3-0.1-2.6-0.2-3.8l14.6,22.9v45.8
		h43.2v-45.8l28.8-45.1v90.9h129.6v-29.5c5.2-1.1,10.1-3.3,14.4-6.5v36h86.5V533c19.4,19.9,51.3,20.2,71.2,0.8
		c0.3-0.3,0.5-0.5,0.8-0.8v15.2h43.2v-7.3l4.2,7.3h39v-68.4l14.4,22.5v45.8h43.2v-45.8l35.2-55h-51.2L680,456l-5.6-8.7h-34.2"/>
	<path class="st0" d="M608,432.9h155l-47,73.6v56.1h-72h14.5H543.2v-3.7c-14,4.9-29.2,4.9-43.2,0v3.7H240.7"/>
	<line class="st0" x1="132.7" y1="418.5" x2="892.6" y2="418.5"/>
	<path class="st0" d="M-2.4,504.9c-3-19.2-2-38.9,3.1-57.6"/>
	<polyline class="st0" points="132.7,591.3 744.8,591.3 744.8,514.7 806.4,418.5 	"/>
	<polyline class="st0" points="305.5,620.2 773.6,620.2 773.6,523 840.5,418.5 	"/>
	<path class="st0" d="M132.7,418.5c-35.8,0.1-64.9,29.2-64.8,65c0,4.8,0.5,9.5,1.6,14.2c-7.9,35,14,69.7,48.9,77.6
		c11.9,2.7,24.4,2,35.9-2.1v3.7h576.1v-66.4l58.8-92.1"/>
	<polyline class="st0" points="933,433.7 860.1,547.8 860.1,626.6 860.1,703 	"/>
	<polyline class="st0" points="939.5,450 874.5,551.9 874.4,626.6 874.4,703 	"/>
	<polyline class="st0" points="965.8,435.6 888.9,556 888.9,626.6 888.9,703 	"/>
	<line class="st0" x1="211.9" y1="245.6" x2="211.9" y2="215.6"/>
	<line class="st0" x1="0" y1="144.8" x2="665.7" y2="144.8"/>
	<line class="st0" x1="211.9" y1="144.8" x2="211.9" y2="172.4"/>
	<line class="st0" x1="0" y1="130.4" x2="665.7" y2="130.4"/>
	<line class="st0" x1="0" y1="116" x2="665.7" y2="116"/>
	<line class="st0" x1="0" y1="101.6" x2="665.7" y2="101.6"/>
	<line class="st0" x1="0" y1="87.2" x2="665.7" y2="87.2"/>
	<polyline class="st0" points="665.6,245.6 168.5,245.6 168.5,188 154.1,188 154.1,245.6 111,245.6 111,188 0,188 	"/>
	<line class="st0" x1="0" y1="260" x2="665.7" y2="260"/>
	<polyline class="st0" points="0,202.4 96.7,202.4 96.7,245.6 0,245.6 	"/>
	<polyline class="st0" points="0,230.7 82.3,230.7 82.3,216.8 0,216.8 	"/>
	<path class="st0" d="M255.1,375.3v-72h14.4v57.6h28.8v14.4L255.1,375.3z"/>
	<path class="st0" d="M419.4,317.7h-5.8v14.4h5c4.6,0,10.4-1.1,10.4-7.2C429,319.3,423.7,317.7,419.4,317.7z M422,303.2h-22.9v72
		h14.4v-28.8h4.6l11.7,28.8h14.5l-12.5-31.1c10.6-5.5,14.8-18.5,9.3-29.2C437.5,307.8,430.1,303.3,422,303.2"/>
	<polygon class="st0" points="492.8,303.3 517.8,375.3 502.4,375.3 497.4,360.9 473.8,360.9 468.8,375.3 453.3,375.3 478.4,303.3
		"/>
	<polygon class="st0" points="478.8,346.5 492.4,346.5 485.6,326.7 	"/>
	<path class="st0" d="M534.2,389.7h45.1c17.7,0,34.1-9.3,43.2-24.4c14.3,23.9,45.3,31.6,69.2,17.3c23.9-14.3,31.6-45.3,17.3-69.2
		s-45.3-31.6-69.2-17.3c-7.1,4.3-13,10.2-17.3,17.3c-9.1-15.2-25.5-24.4-43.2-24.4h-45.1v86.4H533l-30-86.4h-34.9l-10.5,30.3"/>
	<path class="st0" d="M137.8,344.4c-2.8,2.8-7.4,2.8-10.2,0c-2.8-2.8-2.8-7.4,0-10.2c2.8-2.8,7.3-2.8,10.1,0"/>
	<path class="st0" d="M148,354.5c-8.4,8.4-22.1,8.5-30.6,0c-8.4-8.4-8.5-22.1,0-30.6s22.1-8.5,30.6,0c0,0,0,0,0,0"/>
	<path class="st0" d="M158.1,364.8c-14.1,14-36.9,14-50.9-0.1c-14-14.1-14-36.9,0.1-50.9c14-14,36.8-14,50.8,0"/>
	<circle class="st0" cx="204.8" cy="339.3" r="7.2"/>
	<circle class="st0" cx="204.8" cy="339.2" r="21.6"/>
	<circle class="st0" cx="204.8" cy="339.2" r="36"/>
	<path class="st0" d="M422,288.9c17.7,0,32.8,12.8,35.6,30.3"/>
	<path class="st0" d="M579.2,346.5c4,0,7.2-3.2,7.2-7.2c0-4-3.2-7.2-7.2-7.2"/>
	<line class="st0" x1="577.4" y1="346.5" x2="577.4" y2="332"/>
	<line class="st0" x1="577.4" y1="332" x2="579.2" y2="332.1"/>
	<line class="st0" x1="577.4" y1="346.5" x2="579.2" y2="346.5"/>
	<path class="st0" d="M579.2,317.7H563v43.2h16.2c11.9,0,21.6-9.7,21.6-21.6S591.2,317.7,579.2,317.7L579.2,317.7z"/>
	<path class="st0" d="M579.2,303.2h-30.7v72.1h30.7c19.9,0,36-16.1,36-36S599.1,303.2,579.2,303.2L579.2,303.2z"/>
	<circle class="st0" cx="665.7" cy="339.2" r="36"/>
	<circle class="st0" cx="665.7" cy="339.2" r="21.6"/>
	<circle class="st0" cx="665.7" cy="339.2" r="7.2"/>
	<circle class="st0" cx="348.7" cy="339.3" r="21.6"/>
	<circle class="st0" cx="348.7" cy="339.3" r="7.2"/>
	<circle class="st0" cx="348.8" cy="339.2" r="36"/>
	<path class="st0" d="M298.3,339.2c0-27.8,22.5-50.4,50.4-50.4c13.6,0,26.6,5.5,36.1,15.2v-15.2H422"/>
	<path class="st0" d="M168.7,393.1c17,11.3,38.3,14,57.6,7.2v3.7h100.8v-3.7c14,4.9,29.2,4.9,43.2,0l0,3.7h208.8
		c15.9,0,31.3-5.9,43.2-16.5c26.7,23.9,67.7,21.6,91.6-5s21.6-67.7-5-91.6c-24.6-22.1-61.9-22.1-86.5,0
		c-11.9-10.6-27.3-16.5-43.2-16.5h-59.5v18.6l-6.5-18.7h-55.4l-4,11.4c-9-7.4-20.3-11.4-31.9-11.4h-51.7v3.7
		c-25.9-9.1-54.7-1-72,20.4v-24.1h-72v3.7c-19.3-6.8-40.6-4.1-57.6,7.2c-29.8-19.9-70-11.9-89.9,17.9s-11.9,70,17.9,89.9
		C118.6,407.7,147,407.7,168.7,393.1L168.7,393.1z"/>
	<path class="st0" d="M298.3,339.2c0,2.4,0.2,4.8,0.5,7.2h-14.9v-57.6h-43.2v15.1c-9.5-9.7-22.6-15.1-36.2-15
		c-13.5,0-26.4,5.4-35.9,15.1c-0.8-0.8-1.6-1.6-2.4-2.3c-20.8-18.5-52.6-16.7-71.2,4s-16.7,52.6,4,71.2
		c19.1,17.1,48.1,17.1,67.2-0.1c0.8-0.7,1.6-1.5,2.4-2.3c19.6,19.8,51.6,20,71.5,0.4c0.2-0.2,0.4-0.4,0.5-0.5v15.1h72v-15.1
		c19.5,19.9,51.4,20.3,71.3,0.8c0.3-0.3,0.5-0.5,0.8-0.8v15.2h93.4l5-14.4h4.8l5,14.4h41.5"/>
	<path class="st0" d="M579.2,418.5c15.4,0,30.4-4.4,43.2-12.8c36.7,23.9,85.7,13.5,109.6-23.2s13.5-85.7-23.2-109.6
		c-26.3-17.1-60.1-17.1-86.4,0c-12.8-8.4-27.9-12.9-43.2-12.9"/>
	<path class="st0" d="M200,418.5c-11-0.6-21.7-3.6-31.4-8.6c-39,19.8-86.7,4.2-106.5-34.9S57.9,288.4,97,268.6
		c22.6-11.4,49.2-11.4,71.8,0.1c11.1-5.7,23.5-8.7,36-8.6c2.4,0,4.8,0.1,7.2,0.3V260"/>
	<path class="st0" d="M82.8,260c-43.8,27.6-56.9,85.4-29.3,129.2c8,12.6,18.8,23.1,31.6,30.7l0,0c-20,15-31.7,38.5-31.7,63.4
		c0,4.9,0.4,9.8,1.3,14.7c-7.8,43.1,20.9,84.3,63.9,92.1c4.6,0.8,9.3,1.3,14.1,1.3"/>
	<polyline class="st0" points="132.7,605.7 759.2,605.7 759.2,518.8 823.5,418.5 	"/>
	<path class="st0" d="M58.4,260c-43.7,41-45.9,109.8-4.9,153.5c2.7,2.9,5.6,5.6,8.6,8.2c-18.2,20.8-26.2,48.6-21.9,76
		c-0.7,4.8-1.1,9.6-1.1,14.4c0,49.3,39.3,93.6,93.6,93.6"/>
	<path class="st0" d="M39.4,260c-40.2,47.4-38.5,117.3,3.8,162.7c-12.1,17.9-18.6,39-18.5,60.6c0,4.9,0.3,9.7,1,14.6
		c-0.6,4.7-1,9.5-1,14.2c0,52.2,43.2,108,108,108h291.8"/>
	<path class="st0" d="M-3.4,497.2c-0.5-4.6-0.7-9.2-0.7-13.9c0-19.9,4.3-39.6,12.7-57.7C-25.7,376.3-27.6,311.2,3.9,260"/>
	<path class="st0" d="M715.5,418.5c43.8-27.5,56.9-85.3,29.4-129.1c-17.1-27.2-47.1-43.8-79.2-43.8"/>
	<path class="st0" d="M739,418.5c43.8-40.5,46.4-108.9,5.9-152.6c-20.4-22.1-49.1-34.6-79.2-34.6"/>
	<path class="st0" d="M759,418.5c43.8-51.5,37.5-128.8-14.1-172.6c-22.1-18.8-50.2-29.1-79.2-29.1"/>
	<path class="st0" d="M777.2,418.5c43.8-61.6,29.3-147-32.3-190.8c-23.1-16.4-50.8-25.3-79.2-25.3"/>
	<path class="st0" d="M794.7,418.1c43.6-71.3,21.1-164.4-50.1-207.9c-23.8-14.5-51.1-22.2-78.9-22.2"/>
	<path class="st0" d="M811.1,418.5c43.7-80.4,14.1-181-66.3-224.7c-24.3-13.2-51.5-20.1-79.1-20.2"/>
	<path class="st0" d="M827.3,418.5c12.1-24.7,18.4-51.8,18.3-79.2c0-99.4-80.6-180-180-180"/>
	<path class="st0" d="M843.2,418.5c11.1-24.9,16.9-51.9,16.8-79.3c0-107.4-87-194.4-194.4-194.4"/>
	<path class="st0" d="M858.9,418.5c10.3-25.1,15.6-52.1,15.6-79.3c0-115.3-93.5-208.8-208.8-208.8"/>
	<path class="st0" d="M874.4,418.5c9.6-25.3,14.5-52.2,14.5-79.3C888.9,216,788.9,116,665.7,116"/>
	<path class="st0" d="M889.8,418.1c8.9-25.3,13.4-52,13.4-78.9c0-131.2-106.4-237.6-237.6-237.6"/>
	<path class="st0" d="M905,418.5c8.4-25.6,12.7-52.3,12.7-79.2c0-139.2-112.8-252-252-252"/>
	<path class="st0" d="M920.1,418.3c8-25.7,12-52.4,12-79.2c0-147.1-119.3-266.4-266.4-266.4c-2.4,0-4.8,0-7.2,0.1H0"/>
	<path class="st0" d="M935,418.5c7.6-25.8,11.4-52.6,11.4-79.5c0-155.1-125.7-280.8-280.8-280.8c-2.4,0-4.8,0-7.2,0.1H0"/>
	<path class="st0" d="M950.1,418.5c7.2-25.8,10.8-52.4,10.8-79.2c0-163-132.2-295.2-295.2-295.2c-2.4,0-4.8,0-7.2,0.1H0"/>
	<path class="st0" d="M965,418.5c6.8-25.9,10.3-52.6,10.3-79.4c0-171-138.6-309.6-309.6-309.6c-2.4,0-4.8,0-7.2,0.1H0"/>
	<path class="st0" d="M979.8,418.5c6.5-26,9.8-52.7,9.8-79.5c0-178.9-145.1-324-324-324c-2.4,0-4.8,0-7.2,0.1H0"/>
	<path class="st0" d="M994.8,418.5c6.2-25.9,9.3-52.5,9.3-79.1C1004,152.4,852.5,0.9,665.7,0.9c-2.4,0-4.8,0-7.2,0.1H0"/>
	<path class="st0" d="M355.9,260v0.3c-2.4-0.2-4.8-0.3-7.2-0.3c-12.5,0-24.9,2.9-36,8.6V260"/>
	<path class="st0" d="M21.2,260c-35.2,49.6-33.4,116.5,4.3,164.1c-10,18.1-15.2,38.4-15.2,59.1c0.1,4.6,0.4,9.3,0.9,13.9
		c-0.6,5-0.9,10-0.9,15c0,67.6,54.8,122.4,122.4,122.4h655.3V527.1l69.5-108.6"/>
	<path class="st0" d="M-2.8,493.8c-10.1,74.9,42.5,143.9,117.4,153.9c6,0.8,12.1,1.2,18.1,1.2h669.7v-118l71.9-112.4"/>
	<path class="st0" d="M-17.4,493.8c-10.1,83,49,158.4,132,168.5c6,0.7,12,1.1,18.1,1.1h684.1v-36.7l-0.3-90.8l74.9-117.3"/>
	<path class="st0" d="M-32,494.5c-9.7,91,56.3,172.7,147.3,182.3c5.8,0.6,11.6,0.9,17.4,0.9h698.5v-51.1v-87.1l65.9-103.1"/>
	<path class="st0" d="M-46.5,495.1c-0.5,5.6-0.8,11.3-0.8,17c0,99.4,80.6,180,180,180h712.9V543.6l61.1-95.6"/>
	<path class="st0" d="M665.7-13.5c194.8,0,352.8,158,352.8,352.8"/>
	<path class="st0" d="M665.6-28.7c202.8,0,367.2,164.4,367.2,367.2"/>
	<path class="st0" d="M665.6-42.3c210.8,0,381.6,170.9,381.6,381.6"/>
	<path class="st0" d="M665.7-56.7c218.7,0,396,177.3,396,396"/>
	<path class="st0" d="M132.7,706.5c-107.4,0-194.4-87-194.4-194.4"/>
	<path class="st0" d="M132.7,720.9c-115.3,0-208.8-93.5-208.8-208.8"/>
	<path class="st0" d="M132.7,735.3c-123.3,0-223.2-99.9-223.2-223.2v-1.8"/>
</g>
</svg>
